<svg id="Layer_1" data-name="Layer 1" xmlns="http://www.w3.org/2000/svg" viewBox="0 0 120 120"><title>Forsvaret ikoner</title><path d="M44.5473,38.4968s7.702,4.844,20.022-1.79l4.795-2.702c11.788-4.64,14.236,10.831,14.236,10.831s3.593,18.01-9.841,39.334c0,0-3.612,5.628-7.276,1.809a7.32164,7.32164,0,0,1-1.744-3.327,84.82083,84.82083,0,0,1-1.915-12.17s-.027-4.178-3.684-4.178h-.047c-3.657,0-3.684,4.178-3.684,4.178a84.82083,84.82083,0,0,1-1.915,12.17,7.32174,7.32174,0,0,1-1.744,3.327c-3.664,3.819-7.276-1.809-7.276-1.809-13.866-21.787-10.894-40.195-10.894-40.195s1.726-16.395,15.772-12.225l7.889,2.31" fill="none" stroke="#000" stroke-miterlimit="10" stroke-width="3.6"/></svg>