<svg id="Layer_1" data-name="Layer 1" xmlns="http://www.w3.org/2000/svg" viewBox="0 0 120 120"><title>Forsvaret ikoner</title><path d="M66.4895,68.58784l7.59417-7.43918V54.56618a4.64949,4.64949,0,0,0-9.299,0v1.00309" fill="none" stroke="#000" stroke-miterlimit="10" stroke-width="3.6"/><path d="M67.04987,22.86354a24.197,24.197,0,0,0-24.197,24.197,51.99389,51.99389,0,0,0,.316,6.06341L36.73525,65.26981a3.55375,3.55375,0,0,0-.46663,1.62859,3.51285,3.51285,0,0,0,3.51285,3.51285h5.50839V80.97606a7.17906,7.17906,0,0,0,7.16151,7.22225h7.87325a3.633,3.633,0,0,1,3.633,3.633v4.64912" fill="none" stroke="#000" stroke-miterlimit="10" stroke-width="3.6"/></svg>