<svg id="Layer_1" data-name="Layer 1" xmlns="http://www.w3.org/2000/svg" viewBox="0 0 120 120"><title>Forsvaret ikoner</title><path d="M59.2528,33.9344l.025.001.026-.001Z" fill="none" stroke="#000" stroke-miterlimit="10" stroke-width="3.6"/><path d="M68.3531,86.5422c0-11.068,4.718-12.958,6.158-14.391a26.50715,26.50715,0,0,0,2.035-2.192,22.14613,22.14613,0,1,0-34.536,0,26.50715,26.50715,0,0,0,2.035,2.192c1.44,1.433,6.158,3.323,6.158,14.391" fill="none" stroke="#000" stroke-miterlimit="10" stroke-width="3.6"/><line x1="48.0003" y1="91.7012" x2="70.5563" y2="91.7012" fill="none" stroke="#000" stroke-miterlimit="10" stroke-width="3.6"/><line x1="52.8289" y1="99.2573" x2="65.7279" y2="99.2573" fill="none" stroke="#000" stroke-miterlimit="10" stroke-width="3.6"/><path d="M72.9664,51.5276a13.59236,13.59236,0,0,0-7.209-7.209" fill="none" stroke="#000" stroke-miterlimit="10" stroke-width="3.6"/><line x1="58.5559" y1="16.7961" x2="58.5559" y2="26.5491" fill="none" stroke="#000" stroke-miterlimit="10" stroke-width="3.6"/><line x1="98.1088" y1="57.6133" x2="88.3558" y2="57.6133" fill="none" stroke="#000" stroke-miterlimit="10" stroke-width="3.6"/><line x1="30.2006" y1="57.6133" x2="20.4476" y2="57.6133" fill="none" stroke="#000" stroke-miterlimit="10" stroke-width="3.6"/><line x1="80.3641" y1="36.1492" x2="86.90309" y2="29.61021" fill="none" stroke="#000" stroke-miterlimit="10" stroke-width="3.6"/><line x1="32.3549" y1="29.6107" x2="38.8939" y2="36.1497" fill="none" stroke="#000" stroke-miterlimit="10" stroke-width="3.6"/><line x1="80.3641" y1="76.2986" x2="86.90309" y2="82.8376" fill="none" stroke="#000" stroke-miterlimit="10" stroke-width="3.6"/><line x1="32.3549" y1="82.8371" x2="38.8939" y2="76.2981" fill="none" stroke="#000" stroke-miterlimit="10" stroke-width="3.6"/></svg>