<svg id="Layer_1" data-name="Layer 1" xmlns="http://www.w3.org/2000/svg" viewBox="0 0 120 120"><title>Forsvaret ikoner</title><path d="M13.51923,71.63468a4.30819,4.30819,0,0,1,3.20261-4.27793s36.33024-4.04161,36.99075-4.04244H97.38633a9.84528,9.84528,0,0,1,9.43543,10.20922,9.84527,9.84527,0,0,1-9.43543,10.20921H53.71259c-.66051-.00083-36.99075-7.82013-36.99075-7.82013A4.30819,4.30819,0,0,1,13.51923,71.63468Z" fill="none" stroke="#000" stroke-miterlimit="10" stroke-width="3.6"/><path d="M53.811,58.06131l8.755-9.0415H82.588c1.514,0,2.741,1.89,2.741,3.502v9.508" fill="none" stroke="#000" stroke-miterlimit="10" stroke-width="3.6"/><line x1="76.89111" y1="49.46862" x2="76.89111" y2="31.95863" fill="none" stroke="#000" stroke-miterlimit="10" stroke-width="3.6"/><line x1="69.88711" y1="49.46862" x2="69.88711" y2="37.81062" fill="none" stroke="#000" stroke-miterlimit="10" stroke-width="3.6"/><line x1="16.84516" y1="61.46641" x2="18.60264" y2="67.38418" fill="none" stroke="#000" stroke-miterlimit="10" stroke-width="3.6"/><line x1="18.60264" y1="76.98931" x2="16.84516" y2="82.90708" fill="none" stroke="#000" stroke-miterlimit="10" stroke-width="3.6"/><line x1="51.40067" y1="74.31994" x2="86.90519" y2="74.31994" fill="none" stroke="#000" stroke-miterlimit="10" stroke-width="3.6"/></svg>