<svg id="Layer_1" data-name="Layer 1" xmlns="http://www.w3.org/2000/svg" viewBox="0 0 120 120"><title>Forsvaret ikoner</title><line x1="69.5461" y1="50.808" x2="59.3931" y2="61.252" fill="none" stroke="#000" stroke-miterlimit="10" stroke-width="3.6"/><polyline points="48.246 35.723 48.246 22.483 48.246 21.818 48.246 19.681 64.581 19.681 72.432 19.681 72.432 35.723" fill="none" stroke="#000" stroke-miterlimit="10" stroke-width="3.6"/><polyline points="72.432 85.974 72.432 99.214 72.432 99.879 72.432 102.017 56.097 102.017 48.246 102.017 48.246 85.974" fill="none" stroke="#000" stroke-miterlimit="10" stroke-width="3.6"/><path d="M44.8417,40.8565h30.995a4.352,4.352,0,0,1,4.352,4.352v31.198a4.352,4.352,0,0,1-4.352,4.352h-30.995a4.352,4.352,0,0,1-4.352-4.352V45.2085A4.352,4.352,0,0,1,44.8417,40.8565Z" fill="none" stroke="#000" stroke-miterlimit="10" stroke-width="3.6"/><path d="M61.7354,45.0241a1.98556,1.98556,0,1,1-2.808,0,1.98631,1.98631,0,0,1,2.808,0"/><path d="M61.7354,73.2259a1.98556,1.98556,0,1,1-2.808,0,1.98629,1.98629,0,0,1,2.808,0"/><path d="M44.8264,59.125a1.98556,1.98556,0,1,1,0,2.808,1.98629,1.98629,0,0,1,0-2.808"/><path d="M73.0282,59.125a1.98556,1.98556,0,1,1,0,2.808,1.98629,1.98629,0,0,1,0-2.808"/></svg>