<svg id="Layer_1" data-name="Layer 1" xmlns="http://www.w3.org/2000/svg" viewBox="0 0 120 120"><title>Forsvaret ikoner</title><path d="M79.0582,29.0539a7.21838,7.21838,0,1,1-4.735-9.043A7.21739,7.21739,0,0,1,79.0582,29.0539Z" fill="none" stroke="#000" stroke-miterlimit="10" stroke-width="3.6"/><path d="M83.4321,58.7817l-10.6-.243,1.141-9.662c.565-4.836-1.311-9.107-5.988-10.042a8.11558,8.11558,0,0,0-9.106,5.748l-5.029,16.083a7.36675,7.36675,0,0,0,.595,5.782l13.314,12.537a3.94816,3.94816,0,0,1,1.133,2.53c.322,5.293.365,21.968.365,21.968h7.076l-.367-24.894a6.19761,6.19761,0,0,0-1.848-4.538l-8.891-8.51" fill="none" stroke="#000" stroke-miterlimit="10" stroke-width="3.6"/><polyline points="35.925 89.912 22.141 89.912 22.141 81.857 40.574 81.857 47.526 73.415" fill="none" stroke="#000" stroke-miterlimit="10" stroke-width="3.6"/><polyline points="54.206 39.103 44.934 39.103 37.292 54.007" fill="none" stroke="#000" stroke-miterlimit="10" stroke-width="3.6"/><line x1="55.0381" y1="97.1254" x2="64.7071" y2="97.1254" fill="none" stroke="#000" stroke-miterlimit="10" stroke-width="3.6"/><line x1="76.202" y1="97.1254" x2="95.533" y2="97.1254" fill="none" stroke="#000" stroke-miterlimit="10" stroke-width="3.6"/><line x1="16.0808" y1="69.0082" x2="34.8328" y2="69.0082" fill="none" stroke="#000" stroke-miterlimit="10" stroke-width="3.6"/></svg>