<svg id="Layer_1" data-name="Layer 1" xmlns="http://www.w3.org/2000/svg" viewBox="0 0 120 120"><title>Forsvaret ikoner</title><polygon points="85.727 90.783 59.238 101.382 33.744 90.783 33.744 84.793 33.744 78.804 59.238 89.402 85.727 78.804 85.727 84.793 85.727 90.783" fill="none" stroke="#000" stroke-miterlimit="10" stroke-width="3.6"/><polygon points="85.727 69.165 72.483 74.464 59.238 79.764 46.491 74.464 33.744 69.165 33.744 66.17 33.744 63.175 33.744 60.18 33.744 57.186 46.491 62.485 59.238 67.784 72.483 62.485 85.727 57.186 85.727 60.18 85.727 63.175 85.727 66.17 85.727 69.165" fill="none" stroke="#000" stroke-miterlimit="10" stroke-width="3.6"/><polyline points="69.982 51.273 59.826 45.933 49.669 51.273 51.609 39.964 43.392 31.954 54.747 30.304 59.826 20.015 64.904 30.304 76.259 31.954 68.042 39.964" fill="none" stroke="#000" stroke-miterlimit="10" stroke-width="3.6"/></svg>