<svg id="Layer_1" data-name="Layer 1" xmlns="http://www.w3.org/2000/svg" viewBox="0 0 120 120"><title>Forsvaret ikoner</title><path d="M31.398,86.0258l.15-16.87H16.128v-38.81h57.7v38.81H44.468Zm-11.67-20.47h15.46l-.09,9.82,7.61-9.82h27.52v-31.61h-50.5Z"/><polygon points="86.608 101.006 74.298 85.106 50.698 85.106 50.698 74.196 54.298 74.196 54.298 81.506 76.068 81.506 82.908 90.346 82.828 81.506 99.728 81.506 99.728 54.296 79.128 54.296 79.128 50.696 103.328 50.696 103.328 85.106 86.468 85.106 86.608 101.006"/><rect x="24.328" y="44.196" width="14.13" height="3.6"/><rect x="43.678" y="44.196" width="7.85" height="3.6"/><rect x="56.828" y="44.196" width="3.93" height="3.6"/></svg>