<svg id="Layer_1" data-name="Layer 1" xmlns="http://www.w3.org/2000/svg" viewBox="0 0 120 120"><title>Forsvaret ikoner</title><path d="M79.58168,80.4519c-4.82618,1.27567-7.91687-2.69642-8.87492-4.97534M77.8639,89.21734c-4.55383-2.0504-4.45116-7.0805-3.76136-9.4539M45.84221,78.56579c3.10707,3.91048,7.95923,2.57461,10.08894,1.32083m-11.8464,9.18014c4.96854-.49958,6.46593-5.30387,6.56175-7.77306M72.12337,47.286c-.0315-.03421-3.09195-3.46429-2.51576-7.13935.39556-2.53489,2.999-6.63017,7.28446-6.63017M61.03928,86.69886c0,6.03886,3.838,7.29537,6.31,7.29537,10.57214,0,19.80428-14.28556,22.47059-19.79335,2.37883-4.91786,1.28662-10.07666-.412-13.71475a21.95878,21.95878,0,0,0,1.29489-9.40738c-.42163-8.39994-6.34-12.26527-9.51961-14.33889-.50375-.32853-1.07175-.69807-1.288-.88286-.46808-.39695-1.02513-.96633-1.61777-1.56995a23.67624,23.67624,0,0,0-8.45613-6.1128,10.75133,10.75133,0,0,0-3.942-.75688c-3.7845,0-4.83988,3.76127-4.83988,9.60582m16.76707,8.57242c-4.93838-.73366-7.56776,3.556-8.26992,5.92662m1.63841,18.39725c3.41091-2.88531,3.26037-7.29541,2.74842-9.9973,3.55193.12318,6.23327-.79523,7.97836-2.76075,3.26312-3.67777,1.74793-9.45937,1.68219-9.703M46.50879,49.272A7.97929,7.97929,0,0,1,50.359,44.80857c1.96138-.89928,4.38817-.71858,7.20643.53654m3.41366-8.32192c0-5.84455-1.054-9.60582-4.83854-9.60582a10.76219,10.76219,0,0,0-3.942.75688,23.6894,23.6894,0,0,0-8.4588,6.1128c-.58988.60362-1.1456,1.173-1.6151,1.56995-.219.18479-.78562.55433-1.28938.88286-3.17816,2.07362-9.09522,5.93895-9.51543,14.33889a21.88017,21.88017,0,0,0,1.292,9.40738c-1.69722,3.63809-2.79362,8.79689-.4106,13.71475C34.86489,79.70867,44.097,93.99423,54.66918,93.99423c2.46923,0,6.31-1.25651,6.31-7.29537ZM50.84491,44.48008c-.10534-.34218-2.63614-8.39176-9.51543-8.04134m7.66224,35.72954c-2.79914-2.37336-2.67733-5.995-2.25712-8.21653-2.91676.10129-5.12183-.6515-6.55623-2.268-2.68276-3.02356-1.43583-7.77309-1.38378-7.97568" fill="none" stroke="#000" stroke-miterlimit="10" stroke-width="3.6"/></svg>