<svg id="Layer_1" data-name="Layer 1" xmlns="http://www.w3.org/2000/svg" viewBox="0 0 120 120"><title>Forsvaret ikoner</title><line x1="79.6215" y1="48.9037" x2="70.1365" y2="54.60171" fill="none" stroke="#000" stroke-miterlimit="10" stroke-width="3.6"/><polyline points="85.587 53.103 78.84 49.206 78.84 41.418" fill="none" stroke="#000" stroke-miterlimit="10" stroke-width="3.6"/><polyline points="80.233 56.194 73.486 52.299 73.486 44.51" fill="none" stroke="#000" stroke-miterlimit="10" stroke-width="3.6"/><polygon points="91.481 49.221 84.736 45.326 84.736 37.535 91.481 33.64 98.226 37.535 98.226 45.326 91.481 49.221" fill="none" stroke="#000" stroke-miterlimit="10" stroke-width="3.6"/><line x1="41.2813" y1="70.9096" x2="50.7663" y2="65.0506" fill="none" stroke="#000" stroke-miterlimit="10" stroke-width="3.6"/><polyline points="35.315 66.548 42.062 70.441 42.062 78.231" fill="none" stroke="#000" stroke-miterlimit="10" stroke-width="3.6"/><polyline points="40.671 63.456 47.416 67.351 47.416 75.141" fill="none" stroke="#000" stroke-miterlimit="10" stroke-width="3.6"/><polygon points="29.422 70.431 36.169 74.324 36.169 82.114 29.422 86.01 22.675 82.114 22.675 74.324 29.422 70.431" fill="none" stroke="#000" stroke-miterlimit="10" stroke-width="3.6"/><line x1="79.0543" y1="70.9096" x2="69.8193" y2="65.6006" fill="none" stroke="#000" stroke-miterlimit="10" stroke-width="3.6"/><polyline points="78.84 78.232 78.84 70.442 85.587 66.549" fill="none" stroke="#000" stroke-miterlimit="10" stroke-width="3.6"/><polyline points="73.487 75.141 73.487 67.351 80.234 63.456" fill="none" stroke="#000" stroke-miterlimit="10" stroke-width="3.6"/><polygon points="84.736 82.114 84.736 74.324 91.481 70.431 98.226 74.324 98.226 82.114 91.481 86.009 84.736 82.114" fill="none" stroke="#000" stroke-miterlimit="10" stroke-width="3.6"/><line x1="41.5081" y1="48.5634" x2="51.0841" y2="54.05041" fill="none" stroke="#000" stroke-miterlimit="10" stroke-width="3.6"/><polyline points="42.062 41.418 42.062 49.206 35.315 53.103" fill="none" stroke="#000" stroke-miterlimit="10" stroke-width="3.6"/><polyline points="47.416 44.51 47.416 52.298 40.671 56.194" fill="none" stroke="#000" stroke-miterlimit="10" stroke-width="3.6"/><polygon points="36.169 37.536 36.169 45.326 29.422 49.222 22.675 45.326 22.675 37.536 29.422 33.641 36.169 37.536" fill="none" stroke="#000" stroke-miterlimit="10" stroke-width="3.6"/><polyline points="53.704 84.954 60.451 81.059 67.196 84.954" fill="none" stroke="#000" stroke-miterlimit="10" stroke-width="3.6"/><polyline points="53.704 78.771 60.451 74.876 67.196 78.771" fill="none" stroke="#000" stroke-miterlimit="10" stroke-width="3.6"/><polygon points="53.704 92.152 60.451 88.257 67.196 92.152 67.196 99.942 60.451 103.835 53.704 99.942 53.704 92.152" fill="none" stroke="#000" stroke-miterlimit="10" stroke-width="3.6"/><polyline points="67.196 34.696 60.451 38.591 53.704 34.696" fill="none" stroke="#000" stroke-miterlimit="10" stroke-width="3.6"/><polyline points="67.196 40.878 60.451 44.773 53.704 40.878" fill="none" stroke="#000" stroke-miterlimit="10" stroke-width="3.6"/><polygon points="67.196 27.5 60.451 31.393 53.704 27.5 53.704 19.71 60.451 15.815 67.196 19.71 67.196 27.5" fill="none" stroke="#000" stroke-miterlimit="10" stroke-width="3.6"/><polyline points="60.134 82.026 60.134 70.825 50.552 65.371 50.552 53.938 55.48 51.093" fill="none" stroke="#000" stroke-miterlimit="10" stroke-width="3.6"/><polyline points="60.769 37.407 60.769 48.827 70.353 53.938 70.353 65.372 65.47 68.051" fill="none" stroke="#000" stroke-miterlimit="10" stroke-width="3.6"/></svg>