<svg id="Layer_1" data-name="Layer 1" xmlns="http://www.w3.org/2000/svg" viewBox="0 0 120 120"><title>Forsvaret ikoner</title><path d="M25.7226,71.5943V37.9873h28.044l.676,2.967a20.18594,20.18594,0,0,0,19.682,15.702h11.117a12.20965,12.20965,0,0,1,12.209,12.21v11.526H29.0796" fill="none" stroke="#000" stroke-miterlimit="10" stroke-width="3.6"/><line x1="38.1033" y1="89.057" x2="45.8953" y2="89.057" fill="none" stroke="#000" stroke-miterlimit="10" stroke-width="3.6"/><line x1="51.7922" y1="89.057" x2="59.5842" y2="89.057" fill="none" stroke="#000" stroke-miterlimit="10" stroke-width="3.6"/><line x1="55.3959" y1="89.057" x2="73.2729" y2="89.057" fill="none" stroke="#000" stroke-miterlimit="10" stroke-width="3.6"/><line x1="79.1699" y1="89.057" x2="86.9619" y2="89.057" fill="none" stroke="#000" stroke-miterlimit="10" stroke-width="3.6"/><line x1="23.2768" y1="89.057" x2="32.2068" y2="89.057" fill="none" stroke="#000" stroke-miterlimit="10" stroke-width="3.6"/><polyline points="92.859 89.057 102.455 89.057 102.455 80.392 23.277 80.392" fill="none" stroke="#000" stroke-miterlimit="10" stroke-width="3.6"/><rect x="22.451" y="27.245" width="36.758" height="10.742" fill="none" stroke="#000" stroke-miterlimit="10" stroke-width="3.6"/><line x1="62.1899" y1="50.4622" x2="53.8279" y2="59.1892" fill="none" stroke="#000" stroke-linejoin="round" stroke-width="3.6"/><line x1="69.6618" y1="53.8125" x2="67.57179" y2="63.5225" fill="none" stroke="#000" stroke-linejoin="round" stroke-width="3.6"/><line x1="80.672" y1="54.8258" x2="80.672" y2="63.5218" fill="none" stroke="#000" stroke-linejoin="round" stroke-width="3.6"/><path d="M26.2861,59.1895a19.60868,19.60868,0,0,1,19.609,19.609" fill="none" stroke="#000" stroke-miterlimit="10" stroke-width="3.6"/></svg>