<svg id="Layer_1" data-name="Layer 1" xmlns="http://www.w3.org/2000/svg" viewBox="0 0 120 120"><title>Forsvaret ikoner</title><line x1="66.1267" y1="56.6974" x2="66.1267" y2="49.1834" fill="none" stroke="#000" stroke-miterlimit="10" stroke-width="3.6"/><line x1="66.1267" y1="96.0734" x2="66.1267" y2="74.2864" fill="none" stroke="#000" stroke-miterlimit="10" stroke-width="3.6"/><line x1="54.772" y1="74.3246" x2="54.772" y2="96.0736" fill="none" stroke="#000" stroke-miterlimit="10" stroke-width="3.6"/><line x1="54.772" y1="49.1831" x2="54.772" y2="56.3561" fill="none" stroke="#000" stroke-miterlimit="10" stroke-width="3.6"/><polyline points="66.127 30.798 66.127 19.147 54.772 19.147 54.772 25.454" fill="none" stroke="#000" stroke-miterlimit="10" stroke-width="3.6"/><polygon points="50.776 31.925 54.769 31.925 59.848 31.925 66.444 31.925 71.851 31.925 92.926 31.925 100.152 40.739 92.926 49.552 71.851 49.552 50.776 49.552 50.776 40.739 50.776 31.925" fill="none" stroke="#000" stroke-miterlimit="10" stroke-width="3.6"/><polygon points="70.461 74.097 49.386 74.097 28.311 74.097 21.085 65.283 28.311 56.47 49.386 56.47 70.461 56.47 70.461 65.283 70.461 74.097" fill="none" stroke="#000" stroke-miterlimit="10" stroke-width="3.6"/></svg>