<svg id="Layer_1" data-name="Layer 1" xmlns="http://www.w3.org/2000/svg" viewBox="0 0 120 120"><title>Forsvaret ikoner</title><path d="M65.265,63.97284a6.52091,6.52091,0,1,1-6.51685-6.35992c.04755,0,.09405.00592.14142.0069l3.07709-3.07636a10.1354,10.1354,0,1,0,6.36608,6.36243Z"/><path d="M75.96485,53.27558a20.38869,20.38869,0,1,1-6.36969-6.35883L72.198,44.31452a23.8927,23.8927,0,1,0,6.37628,6.35223Z"/><path d="M87.65742,41.58582l-2.56525,2.56464a33.03383,33.03383,0,1,1-6.36535-6.36316l2.5653-2.56476a36.67726,36.67726,0,1,0,6.3653,6.36328Z"/><line x1="58.57275" y1="64.3" x2="91.58623" y2="31.29492" fill="none" stroke="#000" stroke-miterlimit="10" stroke-width="3.6"/><polyline points="91.44 21.849 91.439 31.332 91.553 31.447 101.036 31.448" fill="none" stroke="#000" stroke-miterlimit="10" stroke-width="3.6"/></svg>