<svg id="Layer_1" data-name="Layer 1" xmlns="http://www.w3.org/2000/svg" viewBox="0 0 120 120"><title>Forsvaret ikoner</title><path d="M83.0279,77.47a3.533,3.533,0,1,1,3.533,3.532A3.53713,3.53713,0,0,1,83.0279,77.47Z" fill="none" stroke="#000" stroke-miterlimit="10" stroke-width="3.6"/><circle cx="67.9958" cy="77.47" r="4.949" fill="none" stroke="#000" stroke-miterlimit="10" stroke-width="3.6"/><path d="M29.4499,73.9368a3.5325,3.5325,0,1,1-3.532,3.533A3.53713,3.53713,0,0,1,29.4499,73.9368Z" fill="none" stroke="#000" stroke-miterlimit="10" stroke-width="3.6"/><circle cx="48.0146" cy="77.47" r="4.949" fill="none" stroke="#000" stroke-miterlimit="10" stroke-width="3.6"/><path d="M107.8162,76.1455a11.50743,11.50743,0,0,0-11.494-11.494H19.6892a11.50678,11.50678,0,0,0-11.494,11.494" fill="none" stroke="#000" stroke-miterlimit="10" stroke-width="3.6"/><polyline points="15.386 76.614 21.9 90.311 94.111 90.311 100.626 76.614" fill="none" stroke="#000" stroke-miterlimit="10" stroke-width="3.6"/><path d="M16.9773,47.1383v1.775a7.35124,7.35124,0,0,0,7.343,7.343h71.255" fill="none" stroke="#000" stroke-miterlimit="10" stroke-width="3.6"/><polyline points="114.418 31.836 76.779 47.645 69.013 36.636 45.503 36.636 45.413 36.636 36.491 36.636 31.57 50.104" fill="none" stroke="#000" stroke-miterlimit="10" stroke-width="3.6"/><line x1="52.4344" y1="29.3124" x2="52.4344" y2="36.85741" fill="none" stroke="#000" stroke-miterlimit="10" stroke-width="3.6"/></svg>