<svg id="Layer_1" data-name="Layer 1" xmlns="http://www.w3.org/2000/svg" viewBox="0 0 120 120"><title>Forsvaret ikoner</title><path d="M88.8705,38.2867a29.632,29.632,0,1,1-38.685-16.11A29.63182,29.63182,0,0,1,88.8705,38.2867Z" fill="none" stroke="#000" stroke-miterlimit="10" stroke-width="3.6"/><path d="M75.8796,50.9871c3.728,12.622,2.627,23.617-3.12,25.985-6.704,2.762-17.192-7.265-23.426-22.397" fill="none" stroke="#000" stroke-miterlimit="10" stroke-width="3.6"/><path d="M46.8936,47.5671q-.171-.60149-.327-1.197c-3.114-11.858-1.854-21.939,3.619-24.194,5.705-2.35,14.15,4.56,20.382,15.996.928,1.703,1.807,3.507,2.621,5.395" fill="none" stroke="#000" stroke-miterlimit="10" stroke-width="3.6"/><line x1="33.858" y1="61.3825" x2="89.392" y2="38.5035" fill="none" stroke="#000" stroke-miterlimit="10" stroke-width="3.6"/><path d="M40.0255,11.3188l2.653,4.954a38.46279,38.46279,0,0,0,36.546,67.69l2.369,4.173" fill="none" stroke="#000" stroke-miterlimit="10" stroke-width="3.6"/><line x1="59.7658" y1="95.2992" x2="59.7658" y2="103.5152" fill="none" stroke="#000" stroke-miterlimit="10" stroke-width="3.6"/><line x1="46.9181" y1="103.87" x2="72.6121" y2="103.87" fill="none" stroke="#000" stroke-miterlimit="10" stroke-width="3.6"/></svg>