<svg id="Layer_1" data-name="Layer 1" xmlns="http://www.w3.org/2000/svg" viewBox="0 0 120 120"><title>Forsvaret ikoner</title><line x1="32.2856" y1="52.2266" x2="32.2856" y2="87.7896" fill="none" stroke="#000" stroke-miterlimit="10" stroke-width="3.6"/><line x1="37.1641" y1="33.0499" x2="33.9411" y2="47.7759" fill="none" stroke="#000" stroke-miterlimit="10" stroke-width="3.6"/><line x1="53.1955" y1="24.4947" x2="49.8655" y2="30.6897" fill="none" stroke="#000" stroke-miterlimit="10" stroke-width="3.6"/><polyline points="84.38 36.728 42.972 19.495 39.271 26.412" fill="none" stroke="#000" stroke-miterlimit="10" stroke-width="3.6"/><polyline points="92.939 45.518 24.003 30.25 20.533 45.518" fill="none" stroke="#000" stroke-miterlimit="10" stroke-width="3.6"/><polyline points="17.064 95.724 17.064 52.226 103.812 52.226 103.812 94.014 17.064 94.014" fill="none" stroke="#000" stroke-miterlimit="10" stroke-width="3.6"/><path d="M72.45889,68.36067V70.723l-8.2832.0166v-.57422l3.88769-4.248a3.697,3.697,0,0,0,1.2959-2.39551,1.10542,1.10542,0,0,0-1.13183-1.23047c-.63965,0-1.11524.42676-1.11524,1.2959a4.84182,4.84182,0,0,0,.06543.72168H64.33975a3.895,3.895,0,0,1-.11523-.918,3.84173,3.84173,0,0,1,4.05273-3.6919A3.67439,3.67439,0,0,1,72.246,63.25911c0,1.624-1.04883,2.91992-2.36133,4.29785l-.77148.80371Z"/><path d="M75.34854,65.22786c0-3.13281,1.47559-5.52881,4.49414-5.52881s4.49512,2.396,4.49512,5.52881c0,3.14942-1.47656,5.69238-4.49512,5.69238S75.34854,68.37728,75.34854,65.22786Zm6.10254.0166c0-2.05078-.52539-2.95312-1.6084-2.95312s-1.60742.90234-1.60742,2.95312c0,2.06641.52441,3.084,1.60742,3.084S81.45108,67.31087,81.45108,65.24446Z"/><path d="M87.19327,65.22786c0-3.13281,1.47656-5.52881,4.49414-5.52881,3.01855,0,4.49414,2.396,4.49414,5.52881,0,3.14942-1.47559,5.69238-4.49414,5.69238C88.66983,70.92024,87.19327,68.37728,87.19327,65.22786Zm6.10156.0166c0-2.05078-.52441-2.95312-1.60742-2.95312-1.082,0-1.60742.90234-1.60742,2.95312,0,2.06641.52539,3.084,1.60742,3.084C92.77042,68.32845,93.29483,67.31087,93.29483,65.24446Z"/></svg>