<svg id="Layer_1" data-name="Layer 1" xmlns="http://www.w3.org/2000/svg" viewBox="0 0 120 120"><title>Forsvaret ikoner</title><path d="M51.9608,52.7961a10.09613,10.09613,0,1,1-2.223,8.805" fill="none" stroke="#000" stroke-miterlimit="10" stroke-width="3.6"/><path d="M86.4725,67.1495h8.111v-15.49h-8.111a26.77582,26.77582,0,0,0-2.394-5.784l5.562-5.562-10.953-10.953-5.562,5.562a26.83273,26.83273,0,0,0-5.784-2.394v-8.111h-15.49v8.111a26.81342,26.81342,0,0,0-5.785,2.394l-5.561-5.562-10.953,10.953,5.562,5.562a27.5589,27.5589,0,0,0-1.291,2.641,27.953,27.953,0,0,0-1.104,3.143h-8.11v15.49h8.11a28.02212,28.02212,0,0,0,1.104,3.143,27.67379,27.67379,0,0,0,1.291,2.641l-5.562,5.562,10.953,10.953,5.561-5.562a26.81342,26.81342,0,0,0,5.785,2.394v8.111h15.49v-8.111a26.83273,26.83273,0,0,0,5.784-2.394l5.562,5.562,10.953-10.953-5.562-5.562a26.776,26.776,0,0,0,2.394-5.784Z" fill="none" stroke="#000" stroke-miterlimit="10" stroke-width="3.6"/></svg>