<svg id="Layer_1" data-name="Layer 1" xmlns="http://www.w3.org/2000/svg" viewBox="0 0 120 120"><title>Forsvaret ikoner</title><path d="M61.2327,90.7575V45.4985l-2.3-1.168-32.541,23.783s8.737,12.931,9.701,20.645" fill="none" stroke="#000" stroke-miterlimit="10" stroke-width="3.6"/><path d="M68.4267,50.0218l24.754,18.092s-9.843,13.895-10.808,23.537" fill="none" stroke="#000" stroke-miterlimit="10" stroke-width="3.6"/><polyline points="68.427 31.457 65.479 24.607 60.679 24.607 54.094 24.607 48.63 37.303 40.056 37.303 36.818 52.464" fill="none" stroke="#000" stroke-miterlimit="10" stroke-width="3.6"/><polyline points="82.755 52.465 79.518 37.303 56.975 37.303" fill="none" stroke="#000" stroke-miterlimit="10" stroke-width="3.6"/><path d="M56.9749,95.5955a5.58874,5.58874,0,0,1-3.52-1.147,8.84322,8.84322,0,0,0-10.158,0,5.97165,5.97165,0,0,1-7.038,0,8.83847,8.83847,0,0,0-10.155,0,5.57668,5.57668,0,0,1-3.518,1.147" fill="none" stroke="#000" stroke-miterlimit="10" stroke-width="3.6"/><path d="M89.7916,102.217a5.90378,5.90378,0,0,1-3.725-1.213,9.19606,9.19606,0,0,0-10.569,0,6.31991,6.31991,0,0,1-7.446,0,9.18973,9.18973,0,0,0-10.565,0,5.90073,5.90073,0,0,1-3.724,1.213" fill="none" stroke="#000" stroke-miterlimit="10" stroke-width="3.6"/><line x1="68.4267" y1="70.4058" x2="68.4267" y2="60.8848" fill="none" stroke="#000" stroke-miterlimit="10" stroke-width="3.6"/><line x1="59.6915" y1="10.1782" x2="59.6915" y2="24.6412" fill="none" stroke="#000" stroke-miterlimit="10" stroke-width="3.6"/></svg>