<svg id="Layer_1" data-name="Layer 1" xmlns="http://www.w3.org/2000/svg" viewBox="0 0 120 120"><title>Forsvaret ikoner</title><path d="M53.6113,88.6192h10.533a2.587,2.587,0,0,1,2.587,2.587v5.502a2.586,2.586,0,0,1-2.586,2.586H53.6113a2.586,2.586,0,0,1-2.586-2.586v-5.503A2.586,2.586,0,0,1,53.6113,88.6192Z" fill="none" stroke="#000" stroke-miterlimit="10" stroke-width="3.6"/><path d="M41.2521,53.3618h-3.8a6.06172,6.06172,0,0,0-6.062,6.061v9.072a6.06172,6.06172,0,0,0,6.062,6.061h3.8Z" fill="none" stroke="#000" stroke-miterlimit="10" stroke-width="3.6"/><path d="M78.0908,74.5558h3.8a6.06173,6.06173,0,0,0,6.062-6.061v-9.072a6.06173,6.06173,0,0,0-6.062-6.061h-3.8Z" fill="none" stroke="#000" stroke-miterlimit="10" stroke-width="3.6"/><path d="M31.8001,57.1011v-9.015a27.8715,27.8715,0,0,1,55.743,0v9.685" fill="none" stroke="#000" stroke-miterlimit="10" stroke-width="3.6"/><path d="M49.8802,94.0856a12.078,12.078,0,0,1-12.078-12.078" fill="none" stroke="#000" stroke-miterlimit="10" stroke-width="3.6"/></svg>