<svg id="Layer_1" data-name="Layer 1" xmlns="http://www.w3.org/2000/svg" viewBox="0 0 120 120"><title>Forsvaret ikoner</title><path d="M36.0267,45.2716a12.71732,12.71732,0,1,1,7.089-6.71" fill="none" stroke="#000" stroke-miterlimit="10" stroke-width="3.6"/><path d="M34.1465,33.3797a2.6545,2.6545,0,1,1-2.655-2.655A2.65541,2.65541,0,0,1,34.1465,33.3797Z" fill="none" stroke="#000" stroke-miterlimit="10" stroke-width="3.6"/><polyline points="45.67 66.867 45.67 48.941 45.222 47.299 33.412 35.489" fill="none" stroke="#000" stroke-miterlimit="10" stroke-width="3.6"/><path d="M82.4202,74.1651a12.71732,12.71732,0,1,1-7.089,6.71" fill="none" stroke="#000" stroke-miterlimit="10" stroke-width="3.6"/><path d="M84.3004,86.057a2.6545,2.6545,0,1,1,2.655,2.655A2.6554,2.6554,0,0,1,84.3004,86.057Z" fill="none" stroke="#000" stroke-miterlimit="10" stroke-width="3.6"/><polyline points="72.777 52.57 72.777 70.496 73.225 72.138 85.035 83.948" fill="none" stroke="#000" stroke-miterlimit="10" stroke-width="3.6"/><path d="M44.7767,82.9152a12.71732,12.71732,0,1,1-6.71-7.089" fill="none" stroke="#000" stroke-miterlimit="10" stroke-width="3.6"/><path d="M32.8848,84.7953a2.6545,2.6545,0,1,1-2.655,2.655A2.6554,2.6554,0,0,1,32.8848,84.7953Z" fill="none" stroke="#000" stroke-miterlimit="10" stroke-width="3.6"/><polyline points="66.372 73.272 48.446 73.272 46.804 73.72 34.994 85.53" fill="none" stroke="#000" stroke-miterlimit="10" stroke-width="3.6"/><path d="M73.6702,36.5216a12.71732,12.71732,0,1,1,6.71,7.089" fill="none" stroke="#000" stroke-miterlimit="10" stroke-width="3.6"/><path d="M85.5621,34.6415a2.6545,2.6545,0,1,1,2.655-2.655A2.6554,2.6554,0,0,1,85.5621,34.6415Z" fill="none" stroke="#000" stroke-miterlimit="10" stroke-width="3.6"/><polyline points="52.075 46.165 70.001 46.165 71.643 45.717 83.453 33.907" fill="none" stroke="#000" stroke-miterlimit="10" stroke-width="3.6"/></svg>