<svg id="Layer_1" data-name="Layer 1" xmlns="http://www.w3.org/2000/svg" viewBox="0 0 120 120"><title>Forsvaret ikoner</title><path d="M79.5608,68.5464c8.987-.295,16.728-3.455,20.808-8.017-4.08-4.562-11.821-7.721-20.808-8.017,6.146-6.563,9.385-14.271,9.045-20.382-6.111-.34-13.819,2.899-20.382,9.045-.296-8.987-3.455-16.728-8.017-20.808-4.562,4.08-7.722,11.821-8.017,20.808-6.564-6.146-14.271-9.385-20.382-9.045-.229,4.103,1.156,8.926,3.951,13.638" fill="none" stroke="#000" stroke-miterlimit="10" stroke-width="3.6"/><path d="M40.8523,52.5128c-8.987.295-16.728,3.455-20.808,8.017,4.08,4.562,11.821,7.721,20.808,8.017-6.146,6.563-9.385,14.271-9.045,20.382,6.111.34,13.819-2.899,20.382-9.045.296,8.987,3.455,16.728,8.017,20.809,4.562-4.081,7.722-11.822,8.017-20.809,6.564,6.146,14.271,9.385,20.383,9.045a23.47308,23.47308,0,0,0-2.803-11.539" fill="none" stroke="#000" stroke-miterlimit="10" stroke-width="3.6"/><circle cx="60.2066" cy="60.5296" r="7.576" fill="none" stroke="#000" stroke-miterlimit="10" stroke-width="3.6"/></svg>