<svg id="Layer_1" data-name="Layer 1" xmlns="http://www.w3.org/2000/svg" viewBox="0 0 120 120"><title>Forsvaret ikoner</title><polyline points="20.311 70.959 28.135 63.135 39.847 63.135 55.993 49.007" fill="none" stroke="#000" stroke-miterlimit="10" stroke-width="3.6"/><polyline points="74.385 65.072 60.257 81.218 60.257 92.931 52.433 100.755" fill="none" stroke="#000" stroke-miterlimit="10" stroke-width="3.6"/><polyline points="53.714 91.354 53.786 85.752 37.373 69.395 31.013 69.664" fill="none" stroke="#000" stroke-miterlimit="10" stroke-width="3.6"/><polyline points="44.27 49.413 24.564 34.973 29.036 32.071 32.075 30.098 61.853 39.833 83.016 30.055 97.876 23.189 91.01 38.049 81.232 59.211 90.966 88.991 88.716 92.457 86.092 96.5 72.05 77.338" fill="none" stroke="#000" stroke-miterlimit="10" stroke-width="3.6"/><path d="M43.3072,86.1035c-3.724,2.843-12.687,9.336-21.328,12.982,3.646-8.641,10.14-17.604,12.982-21.328" fill="none" stroke="#000" stroke-miterlimit="10" stroke-width="3.6"/><path d="M59.9483,55.9912c11.158-16.723,16.166-15.656,18.385-15.865a1.74931,1.74931,0,0,1,1.52.491v.001a1.89108,1.89108,0,0,1,.474,1.573c-.201,2.296.215,6.748-15.942,18.297" fill="none" stroke="#000" stroke-miterlimit="10" stroke-width="3.6"/></svg>