<svg id="Layer_1" data-name="Layer 1" xmlns="http://www.w3.org/2000/svg" viewBox="0 0 120 120"><title>Forsvaret ikoner</title><path d="M80.9729,41.9195c13.285,0,11.946-11.611,11.946-11.611H82.8709l-3.684-3.349-5.917.112-3.238-7.815a84.65754,84.65754,0,0,0-4.912,13.062c-1.675,6.363,1.451,16.076-9.602,25.008-11.052,8.931-33.827,18.421-19.649,45.327h25.487" fill="none" stroke="#000" stroke-miterlimit="10" stroke-width="3.6"/><path d="M85.4821,102.4298h-6.854c0-20.542,6.699-32.711,6.699-42.424,0-2.458-1.089-6.544-2.177-9.851" fill="none" stroke="#000" stroke-miterlimit="10" stroke-width="3.6"/><path d="M43.3405,75.0107s18.917-1.463,12.482,20.38" fill="none" stroke="#000" stroke-miterlimit="10" stroke-width="3.6"/><path d="M23.0918,68.8944c-2.949,8.986-8.91,22.599,3.616,32.543" fill="none" stroke="#000" stroke-miterlimit="10" stroke-width="3.6"/></svg>