<svg id="Layer_1" data-name="Layer 1" xmlns="http://www.w3.org/2000/svg" viewBox="0 0 120 120"><title>Forsvaret ikoner</title><ellipse cx="60.0251" cy="47.8442" rx="13.977" ry="13.636" fill="none" stroke="#000" stroke-miterlimit="10" stroke-width="3.6"/><path d="M92.4105,48.185a31.79479,31.79479,0,0,0-32.385-31.704c-17.727.341-32.386,14.318-32.386,32.045a32.16546,32.16546,0,0,0,7.5,20.454l24.886,29.317L84.9105,68.98A32.391,32.391,0,0,0,92.4105,48.185Z" fill="none" stroke="#000" stroke-miterlimit="10" stroke-width="3.6"/><path d="M73.3201,95.2291c12.272,1.023,20.795,3.409,20.795,6.136,0,3.75-15.341,6.818-34.09,6.818-18.75,0-34.09-3.068-34.09-6.818,0-2.727,8.182-5.113,20.113-6.136" fill="none" stroke="#000" stroke-miterlimit="10" stroke-width="3.6"/></svg>