<svg id="Layer_1" data-name="Layer 1" xmlns="http://www.w3.org/2000/svg" viewBox="0 0 120 120"><title>Forsvaret ikoner</title><path d="M103.7744,39.9801c0,10.622-15.384,29.17-15.384,29.17s-15.384-18.447-15.384-29.17a15.384,15.384,0,0,1,30.768,0Z" fill="none" stroke="#000" stroke-miterlimit="10" stroke-width="3.6"/><path d="M94.7248,39.2261a6.33451,6.33451,0,1,1-6.335-6.335A6.3353,6.3353,0,0,1,94.7248,39.2261Z" fill="none" stroke="#000" stroke-miterlimit="10" stroke-width="3.6"/><path d="M46.7914,52.4526c0,10.622-15.384,29.17-15.384,29.17s-15.384-18.447-15.384-29.17a15.384,15.384,0,0,1,30.768,0Z" fill="none" stroke="#000" stroke-miterlimit="10" stroke-width="3.6"/><path d="M37.7418,51.6985a6.3345,6.3345,0,1,1-6.335-6.335A6.33529,6.33529,0,0,1,37.7418,51.6985Z" fill="none" stroke="#000" stroke-miterlimit="10" stroke-width="3.6"/><line x1="63.9928" y1="85.0225" x2="56.8788" y2="86.5405" fill="none" stroke="#000" stroke-miterlimit="10" stroke-width="3.6"/><line x1="51.4388" y1="87.7013" x2="44.3248" y2="89.2193" fill="none" stroke="#000" stroke-miterlimit="10" stroke-width="3.6"/><line x1="38.2862" y1="90.5079" x2="31.1722" y2="92.0259" fill="none" stroke="#000" stroke-miterlimit="10" stroke-width="3.6"/><line x1="88.8914" y1="79.7095" x2="81.7774" y2="81.2275" fill="none" stroke="#000" stroke-miterlimit="10" stroke-width="3.6"/><line x1="76.3375" y1="82.3884" x2="69.2235" y2="83.9064" fill="none" stroke="#000" stroke-miterlimit="10" stroke-width="3.6"/></svg>