<svg id="Layer_1" data-name="Layer 1" xmlns="http://www.w3.org/2000/svg" viewBox="0 0 120 120"><title>Forsvaret ikoner</title><polyline points="46.738 92.985 46.738 96.343 53.11 96.343 53.11 87.807" fill="none" stroke="#000" stroke-miterlimit="10" stroke-width="3.6"/><polyline points="49.886 50.554 55.929 60.576 55.929 65.646 52.549 69.992 52.549 79.407 62.689 86.65 62.689 104.695 57.378 108.075 55.252 105.466" fill="none" stroke="#000" stroke-miterlimit="10" stroke-width="3.6"/><polyline points="35.046 56.593 38.741 56.593 43.601 59.938 50.229 50.531 49.8 44.959" fill="none" stroke="#000" stroke-miterlimit="10" stroke-width="3.6"/><line x1="36.6152" y1="61.2296" x2="36.6152" y2="78.7996" fill="none" stroke="#000" stroke-miterlimit="10" stroke-width="3.6"/><line x1="36.6152" y1="15.7917" x2="36.6152" y2="20.25771" fill="none" stroke="#000" stroke-miterlimit="10" stroke-width="3.6"/><line x1="36.6152" y1="23.3966" x2="36.6152" y2="52.62061" fill="none" stroke="#000" stroke-miterlimit="10" stroke-width="3.6"/><polyline points="36.972 33.853 48.975 40.332 55.252 35.777 61.938 35.919 61.965 30.761 58.028 30.761 58.028 26.536 61.167 23.638 71.139 23.638" fill="none" stroke="#000" stroke-miterlimit="10" stroke-width="3.6"/><polyline points="73.312 29.032 69.932 29.032 69.932 34.02 64.621 49.954 64.621 65.405 77.175 82.305 82.969 82.305 82.969 51.161 93.35 36.676 93.35 25.087 83.452 25.087 83.452 34.02" fill="none" stroke="#000" stroke-miterlimit="10" stroke-width="3.6"/><polyline points="69.208 15.489 69.208 19.199 62.029 19.199 62.029 15.489" fill="none" stroke="#000" stroke-miterlimit="10" stroke-width="3.6"/><path d="M39.9952,20.8616v2.776s-7.243-.482-10.985,3.622c0,0-5.191-4.587-2.293-10.382C26.7172,16.87761,30.8212,20.25761,39.9952,20.8616Z" fill="none" stroke="#000" stroke-miterlimit="10" stroke-width="3.6"/></svg>