<svg id="Layer_1" data-name="Layer 1" xmlns="http://www.w3.org/2000/svg" viewBox="0 0 120 120"><title>Forsvaret ikoner</title><path d="M29.2127,39.3012c.7-.6,1.5-1.2,2.2-1.7l2.4-1.5c.8-.4,1.7-.9,2.5-1.2a27.72607,27.72607,0,0,1,2.6-1,22.91154,22.91154,0,0,1,2.8-.7,25.35519,25.35519,0,0,1,2.9-.4,28.25219,28.25219,0,0,1,2.9-.2,26.4169,26.4169,0,0,1,2.9.2c.9.1,1.9.2,2.9.4a28.63835,28.63835,0,0,1,2.8.7,20.03362,20.03362,0,0,1,2.6,1c.9.4,1.7.8,2.5,1.2a15.764,15.764,0,0,1,2.4,1.5c.8.6,1.5,1.1,2.2,1.7a17.97117,17.97117,0,0,1,2,1.9c.6.7,1.3,1.4,1.9,2.1s1.1,1.5,1.7,2.2c.5.8,1,1.6,1.4,2.4s.8,1.7,1.2,2.5c.4.9.7,1.8,1,2.7a22.91217,22.91217,0,0,1,.7,2.8,25.35025,25.35025,0,0,1,.4,2.9c.1,1,.1,2,.1,3s-.1,2-.1,3a26.94986,26.94986,0,0,1-1.1,5.7c-.3.9-.6,1.8-1,2.7s-.8,1.7-1.2,2.5-.9,1.6-1.4,2.4a18.39478,18.39478,0,0,1-1.7,2.2c-.6.7-1.2,1.4-1.9,2.1s-1.3,1.3-2,1.9-1.5,1.2-2.2,1.7-1.6,1-2.4,1.5a14.24274,14.24274,0,0,1-2.5,1.2,27.72884,27.72884,0,0,1-2.6,1,22.91155,22.91155,0,0,1-2.8.7,23.57953,23.57953,0,0,1-2.8.4,28.25219,28.25219,0,0,1-2.9.2,26.4169,26.4169,0,0,1-2.9-.2,26.94986,26.94986,0,0,1-5.7-1.1,20.03507,20.03507,0,0,1-2.6-1c-.8-.4-1.7-.8-2.5-1.2a15.76238,15.76238,0,0,1-2.4-1.5,18.39478,18.39478,0,0,1-2.2-1.7,17.96933,17.96933,0,0,1-2-1.9c-.6-.7-1.3-1.4-1.9-2.1s-1.1-1.5-1.7-2.2c-.5-.8-1-1.6-1.4-2.4s-.8-1.7-1.2-2.5c-.4-.9-.7-1.8-1-2.7a22.91155,22.91155,0,0,1-.7-2.8,25.35074,25.35074,0,0,1-.4-2.9c-.1-1-.1-2-.1-3s.1-2,.1-3a14.45481,14.45481,0,0,1,.4-2.9,28.63918,28.63918,0,0,1,.7-2.8c.3-.9.6-1.8,1-2.7s.8-1.7,1.2-2.5.9-1.6,1.4-2.4a18.39489,18.39489,0,0,1,1.7-2.2" fill="none" stroke="#000" stroke-miterlimit="10" stroke-width="3.6"/><path d="M33.2127,45.4012a4.1006,4.1006,0,0,1,3.1-1.4,4.05522,4.05522,0,0,1,4.1,4.1,4.1,4.1,0,0,1-8.1.9" fill="none" stroke="#000" stroke-miterlimit="10" stroke-width="3.6"/><path d="M50.2127,42.6012a4.10058,4.10058,0,0,1,3.1-1.4,4.05523,4.05523,0,0,1,4.1,4.1,4.1,4.1,0,0,1-8.1.9" fill="none" stroke="#000" stroke-miterlimit="10" stroke-width="3.6"/><path d="M61.7127,56.3012a4.1006,4.1006,0,0,1,3.1-1.4,4.05523,4.05523,0,0,1,4.1,4.1,4.1,4.1,0,0,1-8.1.9" fill="none" stroke="#000" stroke-miterlimit="10" stroke-width="3.6"/><path d="M55.7127,72.2012a4.10058,4.10058,0,0,1,3.1-1.4,4.05523,4.05523,0,0,1,4.1,4.1,4.1,4.1,0,0,1-8.1.9" fill="none" stroke="#000" stroke-miterlimit="10" stroke-width="3.6"/><path d="M38.4127,75.7012a4.10058,4.10058,0,0,1,3.1-1.4,4.05523,4.05523,0,0,1,4.1,4.1,4.1,4.1,0,0,1-8.1.9" fill="none" stroke="#000" stroke-miterlimit="10" stroke-width="3.6"/><path d="M27.0127,61.8012a4.10058,4.10058,0,0,1,3.1-1.4,4.05523,4.05523,0,0,1,4.1,4.1,4.1,4.1,0,0,1-8.1.9" fill="none" stroke="#000" stroke-miterlimit="10" stroke-width="3.6"/><path d="M47.5127,57.3012a4.5,4.5,0,1,1-4.5,4.5,4.50036,4.50036,0,0,1,4.5-4.5"/><path d="M69.0127,88.8012l8.2-8.9s3,10,7.2,11.3c4,1.2,10.2-.4,8.6-7.8-1.7-7.7-9.2-9.4-10.7-19.4-1.5-10.4-2.5-30.3,18.6-34.4l5.2,11.8s-18.7-1.8-18.7,18.2a27.70692,27.70692,0,0,0,4,14c2.7,4.6,6,12,4,17.7-3,9-24.2,7.3-26.4-2.5"/></svg>