<svg id="Layer_1" data-name="Layer 1" xmlns="http://www.w3.org/2000/svg" viewBox="0 0 120 120"><title>Forsvaret ikoner</title><path d="M60.5715,39.4973s-13.753-12.579-37.991-1.989v50.605s20.78-10.878,37.991,0c0,0,19.12-10.878,37.991,0V37.5083S77.4295,27.1423,60.5715,39.4973Z" fill="none" stroke="#000" stroke-miterlimit="10" stroke-width="3.6"/><line x1="60.5715" y1="39.4973" x2="60.5715" y2="77.2353" fill="none" stroke="#000" stroke-miterlimit="10" stroke-width="3.6"/><path d="M90.2758,52.0397v-3.902c-3.642-1.388-12.368-3.821-20.501.681v4.258c8.582-6.204,19.234-1.619,20.501-1.037"/><path d="M69.7745,57.3211v4.258c8.582-6.204,19.234-1.62,20.501-1.037v-3.902c-3.641-1.388-12.368-3.822-20.501.681"/><path d="M69.7745,65.8231v4.258c8.582-6.204,19.234-1.619,20.501-1.037v-3.902c-3.641-1.388-12.368-3.822-20.501.681"/><path d="M51.3685,52.0018v-3.896c-3.704-1.397-12.407-3.773-20.501.758v4.271c8.433-6.175,18.907-1.851,20.501-1.133"/><path d="M30.8672,57.3654v4.271c8.433-6.175,18.907-1.85,20.501-1.133v-3.895c-3.703-1.398-12.407-3.774-20.501.757"/><path d="M30.8672,65.8674v4.271c8.433-6.175,18.907-1.85,20.501-1.133v-3.895c-3.703-1.398-12.407-3.774-20.501.757"/></svg>