<svg id="Layer_1" data-name="Layer 1" xmlns="http://www.w3.org/2000/svg" viewBox="0 0 120 120"><title>Forsvaret ikoner</title><line x1="23.9483" y1="58.1182" x2="45.2053" y2="79.2772" fill="none" stroke="#000" stroke-linejoin="bevel" stroke-width="3.6"/><line x1="44.843" y1="58.0351" x2="49.526" y2="67.0831" fill="none" stroke="#000" stroke-linejoin="bevel" stroke-width="3.6"/><line x1="94.5025" y1="58.1182" x2="73.2455" y2="79.2772" fill="none" stroke="#000" stroke-linejoin="bevel" stroke-width="3.6"/><line x1="73.6078" y1="58.0351" x2="68.9248" y2="67.0831" fill="none" stroke="#000" stroke-linejoin="bevel" stroke-width="3.6"/><path d="M59.2254,83.6994a4.2705,4.2705,0,1,1,4.27-4.27A4.27481,4.27481,0,0,1,59.2254,83.6994Z" fill="none" stroke="#000" stroke-miterlimit="10" stroke-width="3.6"/><polyline points="47.019 84.229 53.694 90.744 53.694 107.154" fill="none" stroke="#000" stroke-miterlimit="10" stroke-width="3.6"/><polyline points="64.757 107.154 64.757 90.744 71.432 84.229" fill="none" stroke="#000" stroke-miterlimit="10" stroke-width="3.6"/><path d="M21.8145,49.3345a37.55929,37.55929,0,0,1,74.822,0c-6.777-4.685-12.176-2.201-15-.053a12.92831,12.92831,0,0,0-2.157,2.031s-9.883-10.89-20.282.127c-6.714-6.258-13.212-6.258-19.479-.855C39.7185,50.5845,31.4355,41.1545,21.8145,49.3345Z" fill="none" stroke="#000" stroke-miterlimit="10" stroke-width="3.6"/></svg>