<svg id="Layer_1" data-name="Layer 1" xmlns="http://www.w3.org/2000/svg" viewBox="0 0 120 120"><title>Forsvaret ikoner</title><line x1="61.6751" y1="39.1372" x2="68.7701" y2="39.1372" fill="none" stroke="#000" stroke-miterlimit="10" stroke-width="3.6"/><polyline points="77.197 41.395 72.975 32.613 72.972 32.613 47.47 32.613 43.248 41.395" fill="none" stroke="#000" stroke-miterlimit="10" stroke-width="3.6"/><path d="M60.2233,54.0057a14.0735,14.0735,0,1,0,14.074,14.074A14.08921,14.08921,0,0,0,60.2233,54.0057Z" fill="none" stroke="#000" stroke-miterlimit="10" stroke-width="3.6"/><path d="M68.5876,68.0798a8.3736,8.3736,0,0,0-8.364-8.365" fill="none" stroke="#000" stroke-miterlimit="10" stroke-width="3.6"/><polygon points="99.292 89.584 21.154 89.584 21.154 57.111 21.154 46.349 99.292 46.349 99.292 89.584" fill="none" stroke="#000" stroke-miterlimit="10" stroke-width="3.6"/><polyline points="92.818 74.441 92.818 82.379 80.489 82.379" fill="none" stroke="#000" stroke-miterlimit="10" stroke-width="3.6"/><line x1="26.108" y1="52.6544" x2="37.592" y2="52.6544" fill="none" stroke="#000" stroke-miterlimit="10" stroke-width="3.6"/></svg>