<svg id="Layer_1" data-name="Layer 1" xmlns="http://www.w3.org/2000/svg" viewBox="0 0 120 120"><title>Forsvaret ikoner</title><path d="M75.3639,41.9475a106.1137,106.1137,0,0,1,1.495,18.085c0,23.957-7.372,43.377-16.467,43.377-6.821,0-12.674-10.924-15.173-26.493" fill="none" stroke="#000" stroke-miterlimit="10" stroke-width="3.6"/><path d="M48.3863,30.3416c3.004-8.424,7.271-13.686,12.005-13.686,4.84,0,9.192,5.5,12.205,14.256" fill="none" stroke="#000" stroke-miterlimit="10" stroke-width="3.6"/><path d="M69.0452,82.2592a101.48909,101.48909,0,0,1-16.886-7.967c-20.747-11.977-33.88-28.072-29.334-35.949,3.45-5.973,16.076-5.504,31.024.296" fill="none" stroke="#000" stroke-miterlimit="10" stroke-width="3.6"/><path d="M91.8177,64.1416c6.003,6.942,8.547,13.411,6.14,17.58-2.447,4.238-9.084,5.317-18.323,3.465" fill="none" stroke="#000" stroke-miterlimit="10" stroke-width="3.6"/><path d="M36.8941,56.4014a105.66931,105.66931,0,0,1,15.264-10.63c20.746-11.979,41.251-15.305,45.8-7.427,3.567,6.179-2.747,16.787-16.085,27.127" fill="none" stroke="#000" stroke-miterlimit="10" stroke-width="3.6"/><path d="M41.7154,85.0744c-9.306,1.889-16.432.906-18.891-3.353-2.396-4.152.118-10.585,6.069-17.496" fill="none" stroke="#000" stroke-miterlimit="10" stroke-width="3.6"/><circle cx="60.39159" cy="60.0327" r="6.828" fill="none" stroke="#000" stroke-miterlimit="10" stroke-width="3.6"/></svg>