<svg id="Layer_1" data-name="Layer 1" xmlns="http://www.w3.org/2000/svg" viewBox="0 0 120 120"><title>Forsvaret ikoner</title><path d="M37.7304,89.74409c-.964-7.714-9.701-20.645-9.701-20.645l32.541-23.783,2.3,1.168v7.896" fill="none" stroke="#000" stroke-miterlimit="10" stroke-width="3.6"/><path d="M70.0644,51.00739l24.754,18.092s-9.843,13.895-10.808,23.537" fill="none" stroke="#000" stroke-miterlimit="10" stroke-width="3.6"/><polyline points="72.899 32.443 69.951 25.593 62.316 25.593 52.897 25.593 47.433 38.289 41.693 38.289 38.455 53.45" fill="none" stroke="#000" stroke-miterlimit="10" stroke-width="3.6"/><polyline points="84.392 53.45 81.155 38.288 58.612 38.288" fill="none" stroke="#000" stroke-miterlimit="10" stroke-width="3.6"/><path d="M58.6126,96.58109a5.58874,5.58874,0,0,1-3.52-1.147,8.84322,8.84322,0,0,0-10.158,0,5.97165,5.97165,0,0,1-7.038,0,8.83847,8.83847,0,0,0-10.155,0,5.57662,5.57662,0,0,1-3.518,1.147" fill="none" stroke="#000" stroke-miterlimit="10" stroke-width="3.6"/><path d="M91.4293,103.20259a5.90378,5.90378,0,0,1-3.725-1.213,9.19606,9.19606,0,0,0-10.569,0,6.31991,6.31991,0,0,1-7.446,0,9.18973,9.18973,0,0,0-10.565,0,5.9007,5.9007,0,0,1-3.724,1.213" fill="none" stroke="#000" stroke-miterlimit="10" stroke-width="3.6"/><line x1="61.3292" y1="13.99844" x2="61.3292" y2="25.6268" fill="none" stroke="#000" stroke-miterlimit="10" stroke-width="3.6"/><path d="M75.71483,82.43723V72.30189A2.93126,2.93126,0,0,0,72.784,69.3706H49.9996a2.93125,2.93125,0,0,0-2.93084,2.93129V82.43723Z" fill="none" stroke="#000" stroke-miterlimit="10" stroke-width="3.6"/><path d="M72.53653,68.5452V63.522a3.36072,3.36072,0,0,0-3.35869-2.82245H53.727c-1.59257,0-3.37291,1.23354-3.47993,2.82245v4.80412" fill="none" stroke="#000" stroke-miterlimit="10" stroke-width="3.6"/><line x1="51.17538" y1="76.9766" x2="56.42683" y2="76.9766" fill="none" stroke="#000" stroke-miterlimit="10" stroke-width="3.6"/><line x1="66.35675" y1="76.9766" x2="71.6082" y2="76.9766" fill="none" stroke="#000" stroke-miterlimit="10" stroke-width="3.6"/><rect x="49.78882" y="82.89381" width="5.06421" height="5.4881" fill="none" stroke="#000" stroke-miterlimit="10" stroke-width="3.6"/><rect x="67.93055" y="82.89381" width="5.06421" height="5.4881" fill="none" stroke="#000" stroke-miterlimit="10" stroke-width="3.6"/><line x1="43.30926" y1="69.35255" x2="48.86888" y2="69.35255" fill="none" stroke="#000" stroke-miterlimit="10" stroke-width="3.6"/><line x1="73.9147" y1="69.35255" x2="79.47432" y2="69.35255" fill="none" stroke="#000" stroke-miterlimit="10" stroke-width="3.6"/></svg>