<svg id="Layer_1" data-name="Layer 1" xmlns="http://www.w3.org/2000/svg" viewBox="0 0 120 120"><title>Forsvaret ikoner</title><path d="M69.2141,39.4577a6.88289,6.88289,0,1,1-4.421-5.65" fill="none" stroke="#000" stroke-miterlimit="10" stroke-width="3.6"/><path d="M82.4554,89.1071a36.49785,36.49785,0,1,0-58.409-29.188s-.331,16.638,10.311,13.862a12.30368,12.30368,0,0,0,4.235-2.155c2.055-1.543,6.656-4.177,10.59-.56,4.31,3.962.969,9.009-.362,10.685a14.54221,14.54221,0,0,0-1.752,2.721c-1.881,3.909-3.548,11.789,13.474,11.943a36.55535,36.55535,0,0,0,9.065-1.135" fill="none" stroke="#000" stroke-miterlimit="10" stroke-width="3.6"/><circle cx="41.8777" cy="52.5618" r="6.882" fill="none" stroke="#000" stroke-miterlimit="10" stroke-width="3.6"/><circle cx="80.5745" cy="57.1874" r="6.882" fill="none" stroke="#000" stroke-miterlimit="10" stroke-width="3.6"/><circle cx="69.3869" cy="78.1829" r="6.882" fill="none" stroke="#000" stroke-miterlimit="10" stroke-width="3.6"/></svg>