<svg id="Layer_1" data-name="Layer 1" xmlns="http://www.w3.org/2000/svg" viewBox="0 0 120 120"><title>Forsvaret ikoner</title><polyline points="44.754 52.58 73.754 52.58 73.754 77.48 45.954 77.48 45.954 57.28" fill="none" stroke="#000" stroke-miterlimit="10" stroke-width="3.6"/><path d="M52.9537,52.5801v-5.5a6.9,6.9,0,0,1,13.8,0v5.5" fill="none" stroke="#000" stroke-miterlimit="10" stroke-width="3.6"/><path d="M59.4537,20.7801a54.99188,54.99188,0,0,0,31.4,11.9v41.9s-1.2,9.3-14.9,18.3-15.7,9.35-15.7,9.35h-1.6s-2-.35-15.7-9.35-14.9-18.3-14.9-18.3v-41.9a54.99188,54.99188,0,0,0,31.4-11.9" fill="none" stroke="#000" stroke-miterlimit="10" stroke-width="3.6"/><path d="M62.7537,62.4801a2.9,2.9,0,0,0-5.8,0,2.944,2.944,0,0,0,1.4,2.5v6h3v-6a2.944,2.944,0,0,0,1.4-2.5"/><rect x="58.26916" y="18.76311" width="2.49998" height="2.49998" transform="translate(3.28136 47.9481) rotate(-45)"/></svg>