<svg id="Layer_1" data-name="Layer 1" xmlns="http://www.w3.org/2000/svg" viewBox="0 0 120 120"><title>Forsvaret ikoner</title><path d="M59.7921,59.5397q-.3915-.9255-.869-1.803-.4755-.8775-1.033-1.701-.5565-.8235-1.187-1.588-.6315-.765-1.332-1.465-.7005-.7005-1.465-1.331-.7635-.63148-1.588-1.188-.8235-.5565-1.701-1.033-.876-.477-1.803-.869-.9255-.39151-1.895-.694a20.37191,20.37191,0,0,0-1.977-.508q-1.008-.2055-2.048-.313a21.04352,21.04352,0,0,0-4.219,0c-.693.071-1.377.176-2.048.313a20.37191,20.37191,0,0,0-1.977.508q-.969.30148-1.895.694-.9255.39148-1.803.869-.8775.4755-1.701,1.033-.8235.5565-1.588,1.188-.765.63-1.465,1.331-.7005.7005-1.332,1.465-.63.7635-1.187,1.588-.5565.8235-1.033,1.701-.477.876-.869,1.803-.3915.9255-.694,1.895a20.37476,20.37476,0,0,0-.508,1.977,20.62774,20.62774,0,0,0-.313,2.048,21.04352,21.04352,0,0,0,0,4.219,20.58294,20.58294,0,0,0,.313,2.048,20.37476,20.37476,0,0,0,.508,1.977q.3015.969.694,1.895.3915.9255.869,1.803.4755.8775,1.033,1.701.5565.8235,1.187,1.588.6315.765,1.332,1.465.699.7005,1.465,1.332.7635.63,1.588,1.187.822.5565,1.701,1.034.876.4755,1.803.868.9255.3915,1.895.694a20.37476,20.37476,0,0,0,1.977.508,20.58294,20.58294,0,0,0,2.048.313,21.00215,21.00215,0,0,0,2.109.106h45.59a17.74178,17.74178,0,0,0,1.795-.09,17.51141,17.51141,0,0,0,1.743-.266c.571-.117,1.133-.262,1.682-.433q.825-.2565,1.613-.59.78749-.333,1.534-.739.747-.4065,1.448-.88.70051-.4725,1.351-1.01.6495-.537,1.246-1.133.597-.5955,1.133-1.246.537-.651,1.011-1.352.47249-.7005.879-1.447.405-.747.739-1.535.333-.7875.591-1.612.2565-.825.432-1.682a17.55589,17.55589,0,0,0,.266-1.743,17.74893,17.74893,0,0,0,0-3.59,17.55589,17.55589,0,0,0-.266-1.743q-.17552-.8565-.432-1.682-.25651-.825-.591-1.613-.333-.7875-.739-1.534-.405-.7455-.879-1.447-.474-.7005-1.011-1.352-.5355-.6495-1.133-1.246-.59548-.5955-1.246-1.133-.651-.537-1.351-1.011-.70048-.4725-1.448-.879-.74551-.405-1.534-.739-.7875-.333-1.613-.59c-.549-.171-1.111-.316-1.682-.433a17.51433,17.51433,0,0,0-1.743-.266,17.74179,17.74179,0,0,0-1.795-.09,23.01154,23.01154,0,0,0-.117-2.331,22.76811,22.76811,0,0,0-.346-2.263q-.228-1.113-.561-2.185-.333-1.071-.767-2.094-.432-1.023-.96-1.993-.5265-.969-1.142-1.879-.61348-.9105-1.312-1.755-.696-.84451-1.471-1.619-.774-.7725-1.619-1.471-.84449-.69749-1.755-1.312-.909-.615-1.879-1.142-.969-.5265-1.993-.96-1.023-.432-2.094-.767-1.071-.333-2.185-.561a22.7681,22.7681,0,0,0-2.263-.346,23.26888,23.26888,0,0,0-4.661,0,22.74279,22.74279,0,0,0-2.264.346q-1.113.228-2.184.561t-2.094.767q-1.023.432-1.993.96-.969.5265-1.879,1.142-.9105.6135-1.755,1.312-.8445.696-1.619,1.471-.774.774-1.471,1.619-.6975.84448-1.313,1.755" fill="none" stroke="#000" stroke-miterlimit="10" stroke-width="3.6"/><path d="M76.9868,50.5028a11.41668,11.41668,0,0,0-.058-1.146,11.1806,11.1806,0,0,0-.446-2.187c-.109-.35-.235-.694-.377-1.029q-.2115-.5025-.472-.98c-.172-.317-.36-.626-.561-.924s-.417-.586-.645-.863c-.228-.276-.47-.542-.723-.795q-.381-.381-.796-.724-.4155-.342-.863-.645c-.298-.201-.606-.389-.924-.561q-.477-.2595-.98-.472-.5025-.213-1.029-.377-.5265-.1635-1.074-.276a11.01459,11.01459,0,0,0-1.113-.17,11.41654,11.41654,0,0,0-1.146-.058" fill="none" stroke="#000" stroke-miterlimit="10" stroke-width="3.6"/></svg>