<svg id="Layer_1" data-name="Layer 1" xmlns="http://www.w3.org/2000/svg" viewBox="0 0 120 120"><title>Forsvaret ikoner</title><polyline points="63.062 29.132 24.462 41.132 24.462 81.332 59.462 94.532 95.862 81.032 95.862 40.832 82.262 34.732 44.362 48.232 44.462 66.532" fill="none" stroke="#000" stroke-miterlimit="10" stroke-width="3.6"/><polyline points="61.462 94.531 61.462 53.832 83.262 45.832" fill="none" stroke="#000" stroke-miterlimit="10" stroke-width="3.6"/><polyline points="61.462 29.632 68.362 27.532 72.562 29.632" fill="none" stroke="#000" stroke-miterlimit="10" stroke-width="3.6"/><polygon points="46.262 67.832 42.662 66.532 43.662 63.932 46.262 64.632 46.262 67.832"/><polygon points="71.762 31.231 73.262 27.932 76.962 29.632 74.662 30.332 71.762 31.231"/><polygon points="82.662 44.132 87.562 46.332 83.762 47.532 82.362 47.232 82.662 44.132"/></svg>