<svg id="Layer_1" data-name="Layer 1" xmlns="http://www.w3.org/2000/svg" viewBox="0 0 120 120"><title>Forsvaret ikoner</title><polygon points="49.349 80.377 47.516 86.144 28.958 104.702 15.821 91.565 34.379 73.007 40.146 71.174 49.349 80.377" fill="none" stroke="#000" stroke-miterlimit="10" stroke-width="3.6"/><polygon points="69.9 41.42 71.733 35.653 90.291 17.095 103.428 30.232 84.87 48.79 79.103 50.623 69.9 41.42" fill="none" stroke="#000" stroke-miterlimit="10" stroke-width="3.6"/><polyline points="49.092 63.623 43.108 57.639 56.804 43.943 67.993 55.132" fill="none" stroke="#000" stroke-miterlimit="10" stroke-width="3.6"/><polyline points="70.732 57.871 78.326 65.465 64.63 79.161 51.662 66.193" fill="none" stroke="#000" stroke-miterlimit="10" stroke-width="3.6"/><path d="M93.5459,76.3698a12.63466,12.63466,0,0,0-17.86,17.86Z" fill="none" stroke="#000" stroke-miterlimit="10" stroke-width="3.6"/><line x1="87.6958" y1="88.3802" x2="92.7268" y2="93.4112" fill="none" stroke="#000" stroke-miterlimit="10" stroke-width="3.6"/><circle cx="93.8451" cy="94.5294" r="1.97637" fill="none" stroke="#000" stroke-miterlimit="10" stroke-width="3.6"/><line x1="44.9049" y1="75.6182" x2="53.1229" y2="67.4002" fill="none" stroke="#000" stroke-miterlimit="10" stroke-width="3.6"/><line x1="66.9115" y1="53.6116" x2="74.21649" y2="46.30661" fill="none" stroke="#000" stroke-miterlimit="10" stroke-width="3.6"/></svg>