<svg id="Layer_1" data-name="Layer 1" xmlns="http://www.w3.org/2000/svg" viewBox="0 0 120 120"><title>Forsvaret ikoner</title><line x1="90.978" y1="65.1053" x2="99.77499" y2="56.3083" fill="none" stroke="#000" stroke-miterlimit="10" stroke-width="3.6"/><path d="M92.7374,24.6386l-7.038,7.038h-14.075s-5.278,0-10.557,5.278c-5.278,5.278-15.834,15.835-15.834,15.835l3.518,3.519h5.279l10.556-10.557,22.873,22.873" fill="none" stroke="#000" stroke-miterlimit="10" stroke-width="3.6"/><polyline points="83.94 65.105 83.94 65.105 90.978 72.143" fill="none" stroke="#000" stroke-miterlimit="10" stroke-width="3.6"/><line x1="17.962" y1="55.4285" x2="27.639" y2="65.1055" fill="none" stroke="#000" stroke-miterlimit="10" stroke-width="3.6"/><path d="M54.0301,36.9546a19.03732,19.03732,0,0,0-12.316-5.278H29.3981l-5.278-5.279" fill="none" stroke="#000" stroke-miterlimit="10" stroke-width="3.6"/><polyline points="83.94 65.105 92.737 73.902 92.737 77.421 89.218 80.94 85.699 80.94 80.421 75.662" fill="none" stroke="#000" stroke-miterlimit="10" stroke-width="3.6"/><polyline points="71.624 66.865 85.699 80.94 85.699 84.459 82.181 87.978 78.662 87.978 73.383 82.7" fill="none" stroke="#000" stroke-miterlimit="10" stroke-width="3.6"/><polyline points="64.587 73.902 78.662 87.977 78.662 91.496 75.144 95.015 71.625 95.015 66.346 89.737" fill="none" stroke="#000" stroke-miterlimit="10" stroke-width="3.6"/><polyline points="64.587 87.978 71.625 95.016 71.625 98.535 68.106 102.053 64.587 102.053 59.309 96.775" fill="none" stroke="#000" stroke-miterlimit="10" stroke-width="3.6"/><polygon points="50.511 77.421 41.714 86.218 41.714 89.737 45.233 93.256 48.752 93.256 57.549 84.459 57.549 80.94 54.03 77.421 50.511 77.421" fill="none" stroke="#000" stroke-miterlimit="10" stroke-width="3.6"/><polygon points="57.549 84.459 48.752 93.256 48.752 96.775 52.271 100.294 55.79 100.294 64.587 91.497 64.587 87.978 61.068 84.459 57.549 84.459" fill="none" stroke="#000" stroke-miterlimit="10" stroke-width="3.6"/><polygon points="36.436 63.346 27.639 72.143 27.639 75.662 31.158 79.181 34.677 79.181 43.474 70.384 43.474 66.865 39.955 63.346 36.436 63.346" fill="none" stroke="#000" stroke-miterlimit="10" stroke-width="3.6"/><polygon points="43.474 70.384 34.677 79.181 34.677 82.7 38.196 86.219 41.715 86.219 50.512 77.422 50.512 73.903 46.993 70.384 43.474 70.384" fill="none" stroke="#000" stroke-miterlimit="10" stroke-width="3.6"/></svg>