<svg id="Layer_1" data-name="Layer 1" xmlns="http://www.w3.org/2000/svg" viewBox="0 0 120 120"><title>Forsvaret ikoner</title><circle cx="34.2531" cy="34.1388" r="5.3132" fill="none" stroke="#000" stroke-miterlimit="10" stroke-width="3.6"/><line x1="38.0101" y1="37.8956" x2="42.3761" y2="42.2616" fill="none" stroke="#000" stroke-miterlimit="10" stroke-width="3.6"/><circle cx="86.6412" cy="86.5265" r="5.3132" fill="none" stroke="#000" stroke-miterlimit="10" stroke-width="3.6"/><line x1="82.8842" y1="82.7697" x2="78.5182" y2="78.4037" fill="none" stroke="#000" stroke-miterlimit="10" stroke-width="3.6"/><circle cx="34.2533" cy="86.5267" r="5.3132" fill="none" stroke="#000" stroke-miterlimit="10" stroke-width="3.6"/><line x1="38.0101" y1="82.7697" x2="42.3761" y2="78.4037" fill="none" stroke="#000" stroke-miterlimit="10" stroke-width="3.6"/><circle cx="86.641" cy="34.1386" r="5.3132" fill="none" stroke="#000" stroke-miterlimit="10" stroke-width="3.6"/><line x1="82.8842" y1="37.8956" x2="78.5182" y2="42.2616" fill="none" stroke="#000" stroke-miterlimit="10" stroke-width="3.6"/><path d="M60.5579,86.7134a26.27461,26.27461,0,0,1-11.122-50.077" fill="none" stroke="#000" stroke-miterlimit="10" stroke-width="3.6"/><path d="M60.5579,34.1732a26.2742,26.2742,0,0,1,10.576,50.324" fill="none" stroke="#000" stroke-miterlimit="10" stroke-width="3.6"/><circle cx="60.5579" cy="23.28881" r="5.313" fill="none" stroke="#000" stroke-miterlimit="10" stroke-width="3.6"/><line x1="60.5579" y1="28.6018" x2="60.5579" y2="41.0528" fill="none" stroke="#000" stroke-miterlimit="10" stroke-width="3.6"/><circle cx="60.5578" cy="97.3765" r="5.313" fill="none" stroke="#000" stroke-miterlimit="10" stroke-width="3.6"/><line x1="60.5579" y1="92.0634" x2="60.5579" y2="79.6124" fill="none" stroke="#000" stroke-miterlimit="10" stroke-width="3.6"/><circle cx="23.4034" cy="60.44321" r="5.313" fill="none" stroke="#000" stroke-miterlimit="10" stroke-width="3.6"/><line x1="28.7164" y1="60.4433" x2="41.1674" y2="60.4433" fill="none" stroke="#000" stroke-miterlimit="10" stroke-width="3.6"/><circle cx="51.5274" cy="53.5724" r="5.313" fill="none" stroke="#000" stroke-miterlimit="10" stroke-width="3.6"/><circle cx="69.9525" cy="53.5724" r="5.313" fill="none" stroke="#000" stroke-miterlimit="10" stroke-width="3.6"/><circle cx="60.5982" cy="69.4465" r="5.313" fill="none" stroke="#000" stroke-miterlimit="10" stroke-width="3.6"/><circle cx="97.491" cy="60.4434" r="5.313" fill="none" stroke="#000" stroke-miterlimit="10" stroke-width="3.6"/><line x1="92.178" y1="60.4433" x2="79.727" y2="60.4433" fill="none" stroke="#000" stroke-miterlimit="10" stroke-width="3.6"/></svg>