<svg id="Layer_1" data-name="Layer 1" xmlns="http://www.w3.org/2000/svg" viewBox="0 0 120 120"><title>Forsvaret ikoner</title><path d="M60.40767,66.34237h7.95869l.83455-.83455L54.88166,51.18856l-.83451.83451v7.95878l-7.95874,0L24.06965,82.00057A10.12524,10.12524,0,0,0,38.38891,96.31982L60.40772,74.301Z" fill="none" stroke="#000" stroke-miterlimit="10" stroke-width="3.6"/><polyline points="60.06 55.855 89.593 26.322 94.202 24.346 96.043 26.188 94.068 30.796 64.534 60.33" fill="none" stroke="#000" stroke-miterlimit="10" stroke-width="3.6"/><path d="M50.32744,46.63264l-4.2138-4.21379A13.32891,13.32891,0,0,0,31.77487,24.28171l-.54573.56247,5.56462,5.56462-2.16815,8.09171-8.09172,2.16815L21.12427,35.259l-.64885.66879A13.33389,13.33389,0,0,0,38.67111,49.86139l5.41643,5.41643" fill="none" stroke="#000" stroke-miterlimit="10" stroke-width="3.6"/><path d="M72.52444,68.82964l5.41643,5.41644A13.32891,13.32891,0,0,1,96.078,88.58485l-.56247.54573L89.95092,83.566l-8.09171,2.16816-2.16815,8.09171,5.40963,5.40962-.66879.64885A13.33389,13.33389,0,0,1,70.49833,81.68861l-3.412-3.412" fill="none" stroke="#000" stroke-miterlimit="10" stroke-width="3.6"/></svg>