<svg id="Layer_1" data-name="Layer 1" xmlns="http://www.w3.org/2000/svg" viewBox="0 0 120 120"><title>Forsvaret ikoner</title><path d="M27.42214,95.28116a4.22038,4.22038,0,1,1,0-5.96917A4.2178,4.2178,0,0,1,27.42214,95.28116Z" fill="none" stroke="#000" stroke-miterlimit="10" stroke-width="3.6"/><polyline points="38.001 71.059 80.402 28.658 88.076 28.658 88.076 36.332 45.675 78.733" fill="none" stroke="#000" stroke-miterlimit="10" stroke-width="3.6"/><line x1="26.62139" y1="69.21084" x2="47.52521" y2="90.11469" fill="none" stroke="#000" stroke-miterlimit="10" stroke-width="3.6"/><line x1="36.26903" y1="80.46651" x2="28.22899" y2="88.50655" fill="none" stroke="#000" stroke-miterlimit="10" stroke-width="3.6"/><circle cx="92.94548" cy="91.4146" r="4.22039" fill="none" stroke="#000" stroke-miterlimit="10" stroke-width="3.6"/><line x1="70.99489" y1="61.79025" x2="79.38244" y2="70.17652" fill="none" stroke="#000" stroke-miterlimit="10" stroke-width="3.6"/><polyline points="47.273 53.418 29.307 35.45 29.307 27.776 36.981 27.776 54.947 45.743" fill="none" stroke="#000" stroke-miterlimit="10" stroke-width="3.6"/><line x1="71.70806" y1="77.85183" x2="63.3205" y2="69.46429" fill="none" stroke="#000" stroke-miterlimit="10" stroke-width="3.6"/><line x1="69.85912" y1="89.23076" x2="90.76295" y2="68.32824" fill="none" stroke="#000" stroke-miterlimit="10" stroke-width="3.6"/><line x1="81.11477" y1="79.5844" x2="89.15479" y2="87.62315" fill="none" stroke="#000" stroke-miterlimit="10" stroke-width="3.6"/></svg>