<svg id="Layer_1" data-name="Layer 1" xmlns="http://www.w3.org/2000/svg" viewBox="0 0 120 120"><title>Forsvaret ikoner</title><path d="M92.5661,64.9718a31.92231,31.92231,0,1,1-6.771-26.108q.99,1.19848,1.859,2.488A31.7756,31.7756,0,0,1,92.5661,64.9718Z" fill="none" stroke="#000" stroke-miterlimit="10" stroke-width="3.6"/><polyline points="69.611 72.55 65.741 72.858 61.872 73.167 58.002 73.475 54.133 73.784" fill="none" stroke="#000" stroke-miterlimit="10" stroke-width="3.6"/><polyline points="43.176 33.914 45.378 37.111 47.58 40.308 49.782 43.505 51.983 46.702 55.853 46.393 59.722 46.085 63.592 45.776 67.461 45.468 69.129 41.963 70.797 38.457 72.464 34.952" fill="none" stroke="#000" stroke-miterlimit="10" stroke-width="3.6"/><polyline points="47.478 87.804 49.146 84.299 50.813 80.793 52.481 77.288 54.149 73.783 51.947 70.586 49.745 67.389 47.543 64.192 45.341 60.995 41.472 61.304 37.602 61.612 33.733 61.921 29.863 62.229" fill="none" stroke="#000" stroke-miterlimit="10" stroke-width="3.6"/><polyline points="45.219 60.959 46.887 57.454 48.554 53.948 50.222 50.443 51.89 46.938" fill="none" stroke="#000" stroke-miterlimit="10" stroke-width="3.6"/><polyline points="87.508 57.689 80.195 58.218 76.325 58.526 74.657 62.032 72.99 65.536 71.322 69.042 69.654 72.547 71.856 75.743 74.058 78.94 76.26 82.138 78.462 85.334" fill="none" stroke="#000" stroke-miterlimit="10" stroke-width="3.6"/><polyline points="67.729 45.401 69.931 48.598 72.133 51.795 74.335 54.992 76.536 58.189" fill="none" stroke="#000" stroke-miterlimit="10" stroke-width="3.6"/><line x1="13.9937" y1="88.3726" x2="28.7147" y2="79.5156" fill="none" stroke="#000" stroke-miterlimit="10" stroke-width="3.6"/><line x1="15.4491" y1="75.692" x2="25.5441" y2="73.254" fill="none" stroke="#000" stroke-miterlimit="10" stroke-width="3.6"/><line x1="26.6711" y1="93.4906" x2="33.2311" y2="85.4396" fill="none" stroke="#000" stroke-miterlimit="10" stroke-width="3.6"/></svg>