<svg id="Layer_1" data-name="Layer 1" xmlns="http://www.w3.org/2000/svg" viewBox="0 0 120 120"><title>Forsvaret ikoner</title><polygon points="87.002 67.381 73.654 51.801 68.913 51.801 79.178 63.781 65.233 63.781 84.529 85.257 64.836 85.257 64.836 96.862 68.436 96.862 68.436 88.857 92.604 88.857 73.308 67.381 87.002 67.381"/><polygon points="60.172 22.227 39.442 48.094 49.866 48.094 33.342 67.381 43.724 67.381 43.724 67.354 51.9 67.354 55.11 63.782 41.166 63.782 57.691 44.495 46.94 44.495 60.172 27.983 73.405 44.495 62.653 44.495 65.715 48.068 80.882 48.068 60.172 22.227"/><polygon points="48.468 71.174 43.724 71.174 43.724 71.068 27.74 88.857 51.341 88.857 51.341 96.862 54.94 96.862 54.94 85.257 35.814 85.257 48.468 71.174"/></svg>