<svg id="Layer_1" data-name="Layer 1" xmlns="http://www.w3.org/2000/svg" viewBox="0 0 120 120"><title>Forsvaret ikoner</title><path d="M75.1539,74.0037a17.89923,17.89923,0,0,1-10.543,12.855" fill="none" stroke="#000" stroke-miterlimit="10" stroke-width="3.6"/><line x1="59.5713" y1="12.7574" x2="59.5713" y2="33.7654" fill="none" stroke="#000" stroke-miterlimit="10" stroke-width="3.6"/><path d="M59.3494,46.8029h0a3.43768,3.43768,0,0,1-3.438-3.438v-4.943a3.438,3.438,0,1,1,6.876,0v4.943A3.43768,3.43768,0,0,1,59.3494,46.8029Z" fill="none" stroke="#000" stroke-miterlimit="10" stroke-width="3.6"/><path d="M36.024,48.8972a21.12822,21.12822,0,0,1,21.128-21.128H61.99a21.12843,21.12843,0,0,1,21.129,21.128v24.902A21.12843,21.12843,0,0,1,61.99,94.9272H57.152a21.12822,21.12822,0,0,1-21.128-21.128v-19.219H59.571v-8.995" fill="none" stroke="#000" stroke-miterlimit="10" stroke-width="3.6"/><line x1="58.1392" y1="54.58" x2="83.11819" y2="54.58" fill="none" stroke="#000" stroke-miterlimit="10" stroke-width="3.6"/></svg>