<svg id="Layer_1" data-name="Layer 1" xmlns="http://www.w3.org/2000/svg" viewBox="0 0 120 120"><title>Forsvaret ikoner</title><path d="M50.8707,35.4895l-10.604,10.604-8.14-8.139-3.727-3.727a17.47859,17.47859,0,0,0,22.763,22.762c.035-.014.069-.031.104-.045l33.062,33.062a6.70267,6.70267,0,0,0,9.479-9.479l-33.067-33.067c.012-.029.026-.058.038-.087a17.47737,17.47737,0,0,0-22.763-22.762l6.823,6.861" fill="none" stroke="#000" stroke-miterlimit="10" stroke-width="3.6"/><path d="M90.1596,83.727a1.86111,1.86111,0,1,1-2.632,0,1.86076,1.86076,0,0,1,2.632,0"/></svg>