<svg id="Layer_1" data-name="Layer 1" xmlns="http://www.w3.org/2000/svg" viewBox="0 0 120 120"><title>Forsvaret ikoner</title><path d="M74.3747,42.4822v10.217a14.397,14.397,0,0,1-28.794,0V42.4822" fill="none" stroke="#000" stroke-miterlimit="10" stroke-width="3.6"/><path d="M81.2514,90.2548V70.0338l16.327,14.781a51.04213,51.04213,0,0,1-75.201,0l16.326-14.781v20.221" fill="none" stroke="#000" stroke-miterlimit="10" stroke-width="3.6"/><path d="M51.1358,94.2751V76.4361a27.77015,27.77015,0,0,0,17.684,0v17.839" fill="none" stroke="#000" stroke-miterlimit="10" stroke-width="3.6"/><line x1="59.9778" y1="22.4884" x2="59.9778" y2="11.76041" fill="none" stroke="#000" stroke-miterlimit="10" stroke-width="3.6"/><path d="M82.9151,39.4411s-5.823,4.394-22.961,4.394h.047c-17.138,0-22.961-4.394-22.961-4.394" fill="none" stroke="#000" stroke-miterlimit="10" stroke-width="3.6"/><path d="M39.6059,54.1819a7.53165,7.53165,0,0,1-3.149-5.673V33.8699l.002.001a23.55693,23.55693,0,0,1,46.999,0v14.64a7.52927,7.52927,0,0,1-3.149,5.673" fill="none" stroke="#000" stroke-linejoin="round" stroke-width="3.6"/><path d="M74.4364,32.6868s-3.67,2.77-14.473,2.77h.029c-10.803,0-14.473-2.77-14.473-2.77" fill="none" stroke="#000" stroke-miterlimit="10" stroke-width="3.6"/></svg>