<svg id="Layer_1" data-name="Layer 1" xmlns="http://www.w3.org/2000/svg" viewBox="0 0 120 120"><title>Forsvaret ikoner</title><path d="M80.63729,68.58784l7.59417-7.43918V54.56618a4.6495,4.6495,0,0,0-9.299,0v1.00309" fill="none" stroke="#000" stroke-miterlimit="10" stroke-width="3.6"/><path d="M81.19766,22.86354a24.197,24.197,0,0,0-24.197,24.197,51.9917,51.9917,0,0,0,.316,6.06341L50.883,65.26981a3.55374,3.55374,0,0,0-.46662,1.62859,3.51285,3.51285,0,0,0,3.51284,3.51285H59.3054v4.7163h7.43918" fill="none" stroke="#000" stroke-miterlimit="10" stroke-width="3.6"/><path d="M59.38888,80.97606a7.22051,7.22051,0,0,0,7.21027,7.22225H74.4724a3.633,3.633,0,0,1,3.63305,3.633v4.64912" fill="none" stroke="#000" stroke-miterlimit="10" stroke-width="3.6"/><line x1="48.39811" y1="81.00558" x2="40.76898" y2="81.00558" fill="none" stroke="#000" stroke-miterlimit="10" stroke-width="3.6"/><line x1="49.47386" y1="75.08538" x2="40.75522" y2="75.08538" fill="none" stroke="#000" stroke-miterlimit="10" stroke-width="3.6"/><path d="M42.31391,85.108a4.81931,4.81931,0,0,1-4.93451,5.57654,5.30844,5.30844,0,0,1-5.04618-5.24627L32.377,83.6777l-1.53.26057c-.34912.04785-1.13115.08807-1.38555.08807a6.4043,6.4043,0,0,1,0-12.8086c.25928,0,1.06884.04065,1.41307.08753l1.50246.26013-.0575-1.71885a5.21812,5.21812,0,0,1,5.05994-5.287,4.99724,4.99724,0,0,1,4.9917,4.99121,4.94043,4.94043,0,0,1-1.68689,3.72241h4.44031A8.59119,8.59119,0,1,0,29.00831,67.6279a10.00443,10.00443,0,0,0,0,19.98828,8.59011,8.59011,0,0,0,16.9624-1.92285c0-.1994-.03235-.38947-.04541-.58533Z"/></svg>