<svg id="Layer_1" data-name="Layer 1" xmlns="http://www.w3.org/2000/svg" viewBox="0 0 120 120"><title>Forsvaret ikoner</title><path d="M86.37583,96.45044V90.48169s-.13835-16.397,7.54657-30.94231l.47938-.92117A27.0569,27.0569,0,1,0,42.3747,48.19534a34.49976,34.49976,0,0,0,.20539,4.43662c.00117.01021-4.84883,12.39548-4.84883,12.39548a4.21236,4.21236,0,0,0-.41094,1.78456,2.02055,2.02055,0,0,0,2.19551,1.7188h4.20272v9.671a5.747,5.747,0,0,0,5.70478,5.80079h4.38" fill="none" stroke="#000" stroke-miterlimit="10" stroke-width="3.6"/><path d="M66.416,28.43377a26.97853,26.97853,0,0,1,8.57765,19.76157A34.49794,34.49794,0,0,1,74.7883,52.632c-.00117.01021,4.84883,12.39548,4.84883,12.39548a4.21221,4.21221,0,0,1,.41094,1.78456,2.02055,2.02055,0,0,1-2.1955,1.7188H73.64984v9.671a5.747,5.747,0,0,1-5.70478,5.80079h-4.38a4.36614,4.36614,0,0,0-4.33994,4.36954V96.245" fill="none" stroke="#000" stroke-miterlimit="10" stroke-width="3.6"/><path d="M30.99257,96.45044V90.48169s.13834-16.397-7.54658-30.94231l-.47937-.92117A27.07047,27.07047,0,0,1,47.93887,21.14179a27.33589,27.33589,0,0,1,3.20147.18744" fill="none" stroke="#000" stroke-miterlimit="10" stroke-width="3.6"/></svg>