<svg id="Layer_1" data-name="Layer 1" xmlns="http://www.w3.org/2000/svg" viewBox="0 0 120 120"><title>Forsvaret ikoner</title><path d="M58.37585,56.12261,42.52873,73.13582l-14.96-.63664-1.915,1.91374,12.01963,7.58136c-1.24741,1.88276-.00516,3.125,1.87759,1.8763L47.1323,95.89153l1.91374-1.915-.63663-14.96L65.42259,63.16937" fill="none" stroke="#000" stroke-miterlimit="10" stroke-width="3.6"/><path d="M66.70824,69.98046l16.58963,23.107,2.35537-2.35668L74.10752,54.48332,88.90091,39.68989c7.08679-7.08675,6.06406-12.77763,5.944-12.97908l-.01032-.009c-.20145-.12137-6.44241-.5966-13.5292,6.49149L66.51325,47.98536,30.81462,35.89213l-3.52144,3.52273L50.83529,55.169" fill="none" stroke="#000" stroke-miterlimit="10" stroke-width="3.6"/><polyline points="81.737 65.217 86.14 60.813 82.578 57.251 77.31 62.517" fill="none" stroke="#000" stroke-miterlimit="10" stroke-width="3.6"/><polyline points="57.247 40.594 61.584 36.256 65.147 39.819 59.614 45.353" fill="none" stroke="#000" stroke-miterlimit="10" stroke-width="3.6"/></svg>