<svg id="Layer_1" data-name="Layer 1" xmlns="http://www.w3.org/2000/svg" viewBox="0 0 120 120"><title>Forsvaret ikoner</title><path d="M101.0748,61.4908a17.7905,17.7905,0,1,1-17.79-17.79A17.79019,17.79019,0,0,1,101.0748,61.4908Z" fill="none" stroke="#000" stroke-miterlimit="10" stroke-width="3.6"/><path d="M42.3032,78.05a17.796,17.796,0,1,1,7.885-6.111" fill="none" stroke="#000" stroke-miterlimit="10" stroke-width="3.6"/><path d="M25.4904,57.7108a12.23438,12.23438,0,0,1,11.283-7.479" fill="none" stroke="#000" stroke-miterlimit="10" stroke-width="3.6"/><path d="M72.6091,57.7108a12.23438,12.23438,0,0,1,11.283-7.479" fill="none" stroke="#000" stroke-miterlimit="10" stroke-width="3.6"/><path d="M53.5775,58.8789a8.87994,8.87994,0,0,1,12.57,0" fill="none" stroke="#000" stroke-miterlimit="10" stroke-width="3.6"/><line x1="11.9317" y1="60.8278" x2="17.9967" y2="60.8278" fill="none" stroke="#000" stroke-miterlimit="10" stroke-width="3.6"/><line x1="107.7931" y1="60.8278" x2="101.7281" y2="60.8278" fill="none" stroke="#000" stroke-miterlimit="10" stroke-width="3.6"/></svg>