<svg id="Layer_1" data-name="Layer 1" xmlns="http://www.w3.org/2000/svg" viewBox="0 0 120 120"><title>Forsvaret ikoner</title><path d="M63.98351,73.6327l25.175,14.358,3.522-3.521-23.208-25.752,14.792-14.792c7.089-7.088,4.9-11.613,4.778-11.814l-.009-.009c-.201-.12-5.276-1.762-12.363,5.325l-14.792,14.792-25.203-23.756-4.687,4.689,15.084,23.758" fill="none" stroke="#000" stroke-miterlimit="10" stroke-width="3.6"/><polyline points="54.173 59.926 36.145 79.12 24.683 72.652 22.768 74.567 34.16 87.135 46.58 98.377 48.495 96.463 42.024 85.001 61.22 66.972" fill="none" stroke="#000" stroke-miterlimit="10" stroke-width="3.6"/><line x1="76.43291" y1="66.17301" x2="80.73592" y2="61.87001" fill="none" stroke="#000" stroke-miterlimit="10" stroke-width="3.6"/><line x1="82.20501" y1="72.06301" x2="86.56702" y2="67.70101" fill="none" stroke="#000" stroke-miterlimit="10" stroke-width="3.6"/><line x1="59.74181" y1="40.8768" x2="55.25981" y2="45.35881" fill="none" stroke="#000" stroke-miterlimit="10" stroke-width="3.6"/><line x1="48.94971" y1="40.00581" x2="53.91071" y2="35.0448" fill="none" stroke="#000" stroke-miterlimit="10" stroke-width="3.6"/></svg>