<svg id="Layer_1" data-name="Layer 1" xmlns="http://www.w3.org/2000/svg" viewBox="0 0 120 120"><title>Forsvaret ikoner</title><polyline points="33.492 88.524 52.808 88.524 52.808 38.445" fill="none" stroke="#000" stroke-miterlimit="10" stroke-width="3.6"/><polyline points="43.591 79.681 13.543 79.681 13.543 49.633 43.591 49.633" fill="none" stroke="#000" stroke-miterlimit="10" stroke-width="3.6"/><polyline points="23.005 43.169 23.005 22.582 43.591 22.582 43.591 43.169" fill="none" stroke="#000" stroke-miterlimit="10" stroke-width="3.6"/><path d="M79.81484,87.898a9.65819,9.65819,0,1,1-9.65671-9.65816A9.65621,9.65621,0,0,1,79.81484,87.898Z" fill="none" stroke="#000" stroke-miterlimit="10" stroke-width="3.6"/><path d="M100.11527,91.44394a6.11344,6.11344,0,1,1-6.11269-6.11264A6.11293,6.11293,0,0,1,100.11527,91.44394Z" fill="none" stroke="#000" stroke-miterlimit="10" stroke-width="3.6"/><polyline points="106.252 87.409 106.252 80.132 86.319 68.972 86.319 51.993 67.132 51.993 67.132 66.327" fill="none" stroke="#000" stroke-miterlimit="10" stroke-width="3.6"/></svg>