<svg id="Layer_1" data-name="Layer 1" xmlns="http://www.w3.org/2000/svg" viewBox="0 0 120 120"><title>Forsvaret ikoner</title><path d="M72.1252,46.7139a11.6625,11.6625,0,1,1-23.325,0v-7.664a11.6625,11.6625,0,0,1,23.325,0Z" fill="none" stroke="#000" stroke-miterlimit="10" stroke-width="3.6"/><line x1="33.6234" y1="95.0568" x2="33.6234" y2="99.2388" fill="none" stroke="#000" stroke-miterlimit="10" stroke-width="3.6"/><path d="M87.705,99.2391V82.5101a22.09493,22.09493,0,0,0-1.281-7.514,18.77464,18.77464,0,0,0-3.618-6.135,16.70744,16.70744,0,0,0-5.617-4.137,17.59653,17.59653,0,0,0-7.278-1.517,7.41072,7.41072,0,0,1-.513.91,11.126,11.126,0,0,1-1.661,2.003,10.44655,10.44655,0,0,1-2.987,2.003,10.97585,10.97585,0,0,1-4.49.911,9.553,9.553,0,0,1-4.122-.911,10.59743,10.59743,0,0,1-2.857-2.003,12.324,12.324,0,0,1-1.662-2.003,8.67094,8.67094,0,0,1-.538-.91,17.24324,17.24324,0,0,0-7.225,1.517,16.15847,16.15847,0,0,0-5.501,4.137,18.7015,18.7015,0,0,0-3.503,6.135,22.86223,22.86223,0,0,0-1.229,7.514v16.729" fill="none" stroke="#000" stroke-miterlimit="10" stroke-width="3.6"/><line x1="87.705" y1="99.2391" x2="87.705" y2="95.0571" fill="none" stroke="#000" stroke-miterlimit="10" stroke-width="3.6"/><line x1="45.2815" y1="90.6545" x2="45.2815" y2="99.2395" fill="none" stroke="#000" stroke-miterlimit="10" stroke-width="3.6"/><line x1="76.3644" y1="90.6545" x2="76.3644" y2="99.2395" fill="none" stroke="#000" stroke-miterlimit="10" stroke-width="3.6"/></svg>