<svg id="Layer_1" data-name="Layer 1" xmlns="http://www.w3.org/2000/svg" viewBox="0 0 120 120"><title>Forsvaret ikoner</title><polygon points="78.073 70.014 65.254 70.014 65.254 83.8 53.542 83.8 53.542 70.014 40.716 70.014 40.716 58.705 53.542 58.705 53.542 45.157 65.254 45.157 65.254 58.705 78.073 58.705 78.073 70.014" fill="none" stroke="#000" stroke-miterlimit="10" stroke-width="3.6"/><path d="M71.8562,33.3593v-6.329a4.04168,4.04168,0,0,0-1.224-2.932l-2.482-2.49a4.10434,4.10434,0,0,0-2.928-1.212H53.0042a4.10426,4.10426,0,0,0-2.94,1.217l-2.485,2.485a4.08576,4.08576,0,0,0-1.21,2.932v6.329" fill="none" stroke="#000" stroke-miterlimit="10" stroke-width="3.6"/><path d="M78.0877,34.7766H27.9127a4.25219,4.25219,0,0,0-4.256,4.25v51.294a4.256,4.256,0,0,0,4.256,4.259h62.961a4.25348,4.25348,0,0,0,4.253-4.259V39.0266a4.24963,4.24963,0,0,0-4.253-4.25h-4.005" fill="none" stroke="#000" stroke-miterlimit="10" stroke-width="3.6"/></svg>