<svg id="Layer_1" data-name="Layer 1" xmlns="http://www.w3.org/2000/svg" viewBox="0 0 120 120"><title>Forsvaret ikoner</title><path d="M37.9475,50.4668l-19.343,33.508c-1.696,2.932-1.853,6.025-.434,8.474,1.417,2.457,4.17,3.868,7.556,3.868h69.018c3.388,0,6.142-1.411,7.558-3.868,1.419-2.449,1.262-5.539-.431-8.477" fill="none" stroke="#000" stroke-miterlimit="10" stroke-width="3.6"/><path d="M101.8715,83.9719l-34.508-59.772c-1.693-2.931-4.293-4.613-7.127-4.613s-5.43,1.682-7.127,4.613l-5.647,9.783" fill="none" stroke="#000" stroke-miterlimit="10" stroke-width="3.6"/><polyline points="60.424 84.533 60.424 76.582 60.424 68.632 60.424 60.681 60.424 52.731" fill="none" stroke="#000" stroke-miterlimit="10" stroke-width="3.6"/><polyline points="60.424 47.625 60.424 46.224 60.424 44.824 60.424 43.423 60.424 42.023" fill="none" stroke="#000" stroke-miterlimit="10" stroke-width="3.6"/></svg>