<svg id="Layer_1" data-name="Layer 1" xmlns="http://www.w3.org/2000/svg" viewBox="0 0 120 120"><title>Forsvaret ikoner</title><path d="M66.67848,68.58784l7.59417-7.43918V54.56618a4.64949,4.64949,0,1,0-9.299,0v1.00309" fill="none" stroke="#000" stroke-miterlimit="10" stroke-width="3.6"/><path d="M67.23885,22.86354a24.197,24.197,0,0,0-24.197,24.197,51.99389,51.99389,0,0,0,.316,6.06341L36.92423,65.26981a3.55363,3.55363,0,0,0-.46663,1.62859,3.51285,3.51285,0,0,0,3.51285,3.51285h5.50839V80.97606a7.17905,7.17905,0,0,0,7.1615,7.22225H60.5136a3.633,3.633,0,0,1,3.633,3.633v4.64912" fill="none" stroke="#000" stroke-miterlimit="10" stroke-width="3.6"/><line x1="43.59744" y1="66.29559" x2="46.2791" y2="61.61936" fill="none" stroke="#000" stroke-miterlimit="10" stroke-width="3.6"/><line x1="32.31765" y1="85.96505" x2="41.42708" y2="70.08022" fill="none" stroke="#000" stroke-miterlimit="10" stroke-width="3.6"/></svg>