<svg id="Layer_1" data-name="Layer 1" xmlns="http://www.w3.org/2000/svg" viewBox="0 0 120 120"><title>Forsvaret ikoner</title><path d="M76.18128,68.42737l5.06961-5.53918V54.038a4.64949,4.64949,0,0,0-9.299,0v1.00308" fill="none" stroke="#231f20" stroke-miterlimit="10" stroke-width="3.6"/><path d="M70.24858,20.7776a24.197,24.197,0,0,0-24.197,24.197,51.99389,51.99389,0,0,0,.316,6.06341L39.934,63.18387a3.55375,3.55375,0,0,0-.46663,1.62859,3.50175,3.50175,0,0,0,.27606,1.36735l.05687.12867S50.292,83.49926,50.66691,84.0114A3.74054,3.74054,0,0,0,51.71862,85.054a7.2191,7.2191,0,0,0,3.93146,1.05841h7.87325a3.633,3.633,0,0,1,3.633,3.633v4.64912" fill="none" stroke="#231f20" stroke-miterlimit="10" stroke-width="3.6"/><path d="M60.65838,86.22091a27.01256,27.01256,0,0,0,7.05274-5.79356S54.98866,72.17048,54.98866,59.53748L43.26392,56.75767" fill="none" stroke="#231f20" stroke-miterlimit="10" stroke-width="3.6"/><line x1="54.98866" y1="59.39987" x2="66.38314" y2="56.20721" fill="none" stroke="#231f20" stroke-miterlimit="10" stroke-width="3.6"/><line x1="73.41124" y1="71.24827" x2="65.73236" y2="79.25743" fill="none" stroke="#231f20" stroke-miterlimit="10" stroke-width="3.6"/></svg>