<svg id="Layer_1" data-name="Layer 1" xmlns="http://www.w3.org/2000/svg" viewBox="0 0 120 120"><title>Forsvaret ikoner</title><path d="M75.67034,78.62271h7.41081a17.00535,17.00535,0,0,0,1.72051-.08626,16.78325,16.78325,0,0,0,1.67066-.255c.5473-.11214,1.086-.25113,1.61219-.415q.79077-.24585,1.54606-.56552.75481-.31917,1.47034-.70832.716-.38964,1.3879-.84348.67143-.45289,1.29494-.96809.62255-.51471,1.19428-1.086.57223-.5708,1.086-1.1943.51473-.624.96905-1.29588.45288-.67143.84252-1.38695.38819-.716.70832-1.4713.31919-.75481.56648-1.5451.24585-.79076.41407-1.61219a16.82867,16.82867,0,0,0,.255-1.67066,17.011,17.011,0,0,0,0-3.441,16.82842,16.82842,0,0,0-.255-1.67067q-.16823-.82095-.41407-1.61219-.24586-.79075-.56648-1.54606-.31917-.75482-.70832-1.47033-.3882-.71457-.84252-1.387-.45434-.67143-.96905-1.29589-.51327-.62254-1.086-1.19429-.57078-.57078-1.19428-1.086-.624-.51471-1.29494-.969-.67141-.45288-1.3879-.84252-.71457-.38819-1.47034-.70833-.75482-.31918-1.54606-.56551c-.52621-.16391-1.06489-.30289-1.61219-.415a16.78909,16.78909,0,0,0-1.67066-.255,17.00827,17.00827,0,0,0-1.72051-.08626,22.0573,22.0573,0,0,0-.11214-2.23426,21.82213,21.82213,0,0,0-.33165-2.16908q-.21854-1.06682-.53771-2.09432-.31919-1.02656-.73517-2.00709-.41407-.98055-.92016-1.9103-.50465-.92877-1.09461-1.801-.588-.87271-1.25754-1.68216-.66712-.80946-1.40995-1.55182-.74188-.74043-1.55182-1.41-.80944-.66855-1.68216-1.25754-.87127-.58948-1.801-1.09462-.9288-.50464-1.9103-.92015-.98054-.41408-2.00709-.73517-1.02656-.31919-2.09432-.53771a21.81921,21.81921,0,0,0-2.16908-.33165,22.304,22.304,0,0,0-4.46756,0,21.79535,21.79535,0,0,0-2.17.33165q-1.06682.21853-2.09336.53771t-2.0071.73517q-.98054.41407-1.91029.92015-.92878.50466-1.801,1.09462-.87271.588-1.68217,1.25754-.80945.66713-1.55181,1.41-.74187.74188-1.40995,1.55182-.66855.80945-1.25851,1.68216" fill="none" stroke="#000" stroke-miterlimit="10" stroke-width="3.6"/><path d="M57.60235,51.15407q-.37526-.88708-.83294-1.72817-.45576-.84109-.99013-1.63041-.5334-.78933-1.13773-1.5221-.6053-.73325-1.27673-1.40419-.67142-.67144-1.4042-1.27577-.73181-.60528-1.52209-1.1387-.78933-.53338-1.63041-.99012-.83964-.45722-1.72817-.83293-.88708-.37526-1.81635-.6652a19.527,19.527,0,0,0-1.895-.48692q-.96616-.197-1.963-.3a20.17227,20.17227,0,0,0-4.0439,0c-.66424.06806-1.31986.1687-1.963.3a19.52758,19.52758,0,0,0-1.895.48692q-.92878.289-1.81636.6652-.88709.37524-1.72817.83293-.84108.45576-1.6304.99012-.78933.53341-1.5221,1.1387-.73325.60386-1.4042,1.27577-.67143.67141-1.27672,1.40419-.60386.73182-1.13774,1.5221-.5334.78932-.99013,1.63041-.4572.83964-.83293,1.72817-.37526.88709-.6652,1.81635a19.52754,19.52754,0,0,0-.48691,1.895,19.76858,19.76858,0,0,0-.3,1.963,20.16832,20.16832,0,0,0,0,4.0439,19.72558,19.72558,0,0,0,.3,1.963,19.52754,19.52754,0,0,0,.48691,1.89495q.289.92879.6652,1.81635.37525.8871.83293,1.72817.45578.84109.99013,1.63041.53341.78933,1.13774,1.5221.60529.73325,1.27672,1.4042.67.67143,1.4042,1.27672.73182.60386,1.5221,1.13774.78787.5334,1.6304.99108.83966.45577,1.72817.832.8871.37525,1.81636.6652a19.747,19.747,0,0,0,3.858.78692,20.12885,20.12885,0,0,0,2.02147.1016h6.07814" fill="none" stroke="#000" stroke-miterlimit="10" stroke-width="3.6"/><path d="M74.08344,42.49221a10.94337,10.94337,0,0,0-.0556-1.09843,10.717,10.717,0,0,0-.42749-2.09624c-.10447-.33548-.22524-.66519-.36135-.9863q-.20273-.48163-.45241-.93932c-.16486-.30385-.34506-.6-.53771-.88566s-.3997-.56168-.61824-.82718c-.21853-.26455-.4505-.51951-.693-.762q-.36519-.36518-.763-.694-.39825-.32781-.82718-.61823c-.28564-.19266-.58085-.37286-.88566-.53772q-.4572-.24873-.93932-.45241-.48165-.20417-.98629-.36135-.50466-.15672-1.02944-.26455a10.55865,10.55865,0,0,0-1.0668-.16294,10.94358,10.94358,0,0,0-1.09844-.05559" fill="none" stroke="#000" stroke-miterlimit="10" stroke-width="3.6"/><polyline points="61.595 61.966 51.34 84.088 58.56 84.088 55.366 99.379 69.284 77.941 62.157 77.941" fill="none" stroke="#000" stroke-miterlimit="10" stroke-width="3.6"/></svg>