<svg id="Layer_1" data-name="Layer 1" xmlns="http://www.w3.org/2000/svg" viewBox="0 0 120 120"><title>Forsvaret ikoner</title><polyline points="45.9 47.799 74.074 47.799 74.074 65.674 45.9 65.674" fill="none" stroke="#000" stroke-miterlimit="10" stroke-width="3.6"/><polygon points="82.31 41.314 74.958 47.799 45.016 47.799 37.665 41.314 37.665 39.568 37.665 38.654 37.665 37.739 37.665 36.825 37.665 35.91 37.665 34.996 37.665 34.081 37.665 33.166 37.665 32.252 37.665 31.337 37.665 30.423 37.665 29.508 37.665 28.594 37.665 27.679 37.665 26.765 37.665 25.85 40.685 25.85 45.543 25.85 45.499 33.202 49.745 33.202 55.71 33.202 55.785 25.85 58.805 25.85 59.987 25.85 61.169 25.85 64.19 25.85 64.232 33.202 70.23 33.202 74.517 33.202 74.432 25.85 79.29 25.85 82.31 25.85 82.31 26.765 82.31 27.679 82.31 28.594 82.31 29.508 82.31 30.423 82.31 31.337 82.31 32.252 82.31 33.166 82.31 34.081 82.31 34.996 82.31 35.91 82.31 36.825 82.31 37.739 82.31 38.654 82.31 39.568 82.31 40.483 82.31 41.314" fill="none" stroke="#000" stroke-miterlimit="10" stroke-width="3.6"/><polygon points="88.726 86.765 88.726 95.111 31.57 95.111 31.57 86.765 38.79 78.518 81.506 78.518 88.726 86.765" fill="none" stroke="#000" stroke-miterlimit="10" stroke-width="3.6"/><polyline points="73.904 65.674 81.479 73.051 81.479 78.518 38.495 78.518 38.495 73.051 46.07 65.674 46.07 53.333" fill="none" stroke="#000" stroke-miterlimit="10" stroke-width="3.6"/><line x1="65.7858" y1="86.7655" x2="88.72579" y2="86.7655" fill="none" stroke="#000" stroke-miterlimit="10" stroke-width="3.6"/></svg>