<svg id="Layer_1" data-name="Layer 1" xmlns="http://www.w3.org/2000/svg" viewBox="0 0 120 120"><title>Forsvaret ikoner</title><polygon points="72.62 33.916 72.62 42.183 72.62 45.226 72.62 50.438 72.62 55.65 72.62 60.861 72.62 69.128 64.616 69.128 44.182 69.128 33.841 82.478 33.965 69.128 18.521 69.128 18.521 33.916 72.62 33.916" fill="none" stroke="#000" stroke-miterlimit="10" stroke-width="3.6"/><polyline points="53.09 75.967 53.09 79.335 53.09 85.085 60.505 85.085 75.779 85.085 85.359 97.452 85.243 85.085 94.708 85.085 102.123 85.085 102.123 79.335 102.123 74.507 102.123 69.678 102.123 64.85 102.123 60.022 102.123 54.272 94.708 54.272 85.243 54.272 79.719 54.272" fill="none" stroke="#000" stroke-miterlimit="10" stroke-width="3.6"/><line x1="24.928" y1="47.7676" x2="39.062" y2="47.7676" fill="none" stroke="#000" stroke-miterlimit="10" stroke-width="3.6"/><line x1="44.2704" y1="47.7676" x2="52.1224" y2="47.7676" fill="none" stroke="#000" stroke-miterlimit="10" stroke-width="3.6"/><line x1="57.4282" y1="47.7676" x2="61.3542" y2="47.7676" fill="none" stroke="#000" stroke-miterlimit="10" stroke-width="3.6"/></svg>