<svg id="Layer_1" data-name="Layer 1" xmlns="http://www.w3.org/2000/svg" viewBox="0 0 120 120"><title>Forsvaret ikoner</title><polyline points="22.889 46.696 22.889 86.759 98.238 86.741 98.238 46.696" fill="none" stroke="#000" stroke-miterlimit="10" stroke-width="3.6"/><line x1="74.2954" y1="27.4549" x2="46.8324" y2="27.4549" fill="none" stroke="#000" stroke-miterlimit="10" stroke-width="3.6"/><polyline points="34.633 27.455 22.858 27.455 22.858 29.075 22.858 30.694 22.858 32.314 22.858 33.933 22.858 35.553 22.858 37.172 22.858 38.792 22.858 40.411 32.284 40.411 41.711 40.411 51.138 40.411 60.564 40.411 69.991 40.411 79.417 40.411 88.844 40.411 98.271 40.411 98.271 38.792 98.271 37.172 98.271 35.553 98.271 33.933 98.271 32.314 98.271 30.694 98.271 29.075 98.271 27.455 87.273 27.455" fill="none" stroke="#000" stroke-miterlimit="10" stroke-width="3.6"/><line x1="40.9233" y1="29.4134" x2="40.9233" y2="23.4324" fill="none" stroke="#000" stroke-miterlimit="10" stroke-width="3.6"/><line x1="80.558" y1="29.4134" x2="80.558" y2="23.4324" fill="none" stroke="#000" stroke-miterlimit="10" stroke-width="3.6"/><line x1="80.558" y1="56.515" x2="89.80599" y2="56.515" fill="none" stroke="#000" stroke-miterlimit="10" stroke-width="3.6"/><line x1="64.2637" y1="56.515" x2="73.5117" y2="56.515" fill="none" stroke="#000" stroke-miterlimit="10" stroke-width="3.6"/><line x1="47.9695" y1="56.515" x2="57.2175" y2="56.515" fill="none" stroke="#000" stroke-miterlimit="10" stroke-width="3.6"/><line x1="80.558" y1="69.8759" x2="89.80599" y2="69.8759" fill="none" stroke="#000" stroke-miterlimit="10" stroke-width="3.6"/><line x1="64.2637" y1="69.8759" x2="73.5117" y2="69.8759" fill="none" stroke="#000" stroke-miterlimit="10" stroke-width="3.6"/><line x1="47.9695" y1="69.8759" x2="57.2175" y2="69.8759" fill="none" stroke="#000" stroke-miterlimit="10" stroke-width="3.6"/><line x1="31.6752" y1="69.8759" x2="40.9232" y2="69.8759" fill="none" stroke="#000" stroke-miterlimit="10" stroke-width="3.6"/></svg>