<svg id="Layer_1" data-name="Layer 1" xmlns="http://www.w3.org/2000/svg" viewBox="0 0 120 120"><title>Forsvaret ikoner</title><polyline points="55.848 36.377 47.105 31.942 20.908 40.675 20.908 87.755 47.232 79.276 73.43 92.564 98.362 87.755 98.362 40.675 83.649 43.238" fill="none" stroke="#000" stroke-miterlimit="10" stroke-width="3.6"/><path d="M87.4775,31.2517c0,9.165-13.274,25.168-13.274,25.168s-13.274-15.916-13.274-25.168a13.274,13.274,0,0,1,26.548,0Z" fill="none" stroke="#000" stroke-miterlimit="10" stroke-width="3.6"/><path d="M79.6693,30.6011a5.4655,5.4655,0,1,1-5.466-5.466A5.46574,5.46574,0,0,1,79.6693,30.6011Z" fill="none" stroke="#000" stroke-miterlimit="10" stroke-width="3.6"/><line x1="46.6625" y1="32.7528" x2="46.6625" y2="45.7178" fill="none" stroke="#000" stroke-miterlimit="10" stroke-width="3.6"/><line x1="46.6625" y1="50.1286" x2="46.6625" y2="56.2666" fill="none" stroke="#000" stroke-miterlimit="10" stroke-width="3.6"/><line x1="46.6625" y1="60.9605" x2="46.6625" y2="67.0985" fill="none" stroke="#000" stroke-miterlimit="10" stroke-width="3.6"/><line x1="46.6625" y1="71.7923" x2="46.6625" y2="77.9303" fill="none" stroke="#000" stroke-miterlimit="10" stroke-width="3.6"/><line x1="74.2606" y1="78.7615" x2="74.2606" y2="84.8995" fill="none" stroke="#000" stroke-miterlimit="10" stroke-width="3.6"/><line x1="74.2606" y1="66.5923" x2="74.2606" y2="72.7303" fill="none" stroke="#000" stroke-miterlimit="10" stroke-width="3.6"/></svg>