<svg id="Layer_1" data-name="Layer 1" xmlns="http://www.w3.org/2000/svg" viewBox="0 0 120 120"><title>Forsvaret ikoner</title><path d="M76.3522,32.6355a78.6616,78.6616,0,0,0-16.7-1.7c-19.4,0-35,6.4-35,14.2s15.7,14.2,35,14.2,35-6.4,35-14.2c0-3.5-3.1-6.7-8.2-9.2l-2.1-.9" fill="none" stroke="#000" stroke-miterlimit="10" stroke-width="3.6"/><line x1="71.9522" y1="42.0355" x2="100.1522" y2="25.63551" fill="none" stroke="#000" stroke-miterlimit="10" stroke-width="3.6"/><ellipse cx="68.0522" cy="44.6355" rx="5.3" ry="4.7" fill="none" stroke="#000" stroke-miterlimit="10" stroke-width="3.6"/><path d="M24.6522,76.4355v-21.6s-.1,6.3,19.3,9.6v28.6s-19.3-.4-19.3-9" fill="none" stroke="#000" stroke-miterlimit="10" stroke-width="3.6"/><path d="M94.7522,84.0355v-29.2s.1,6.3-19.3,9.6v28.6s19.3-.4,19.3-9" fill="none" stroke="#000" stroke-miterlimit="10" stroke-width="3.6"/><path d="M50.3522,65.1355a88.12661,88.12661,0,0,0,18.4,0v23.5" fill="none" stroke="#000" stroke-miterlimit="10" stroke-width="3.6"/><line x1="50.5522" y1="93.6355" x2="50.5522" y2="69.3355" fill="none" stroke="#000" stroke-miterlimit="10" stroke-width="3.6"/><path d="M49.2522,93.3355a88.12661,88.12661,0,0,0,18.4,0" fill="none" stroke="#000" stroke-miterlimit="10" stroke-width="3.6"/></svg>