<svg id="Layer_1" data-name="Layer 1" xmlns="http://www.w3.org/2000/svg" viewBox="0 0 120 120"><title>Forsvaret ikoner</title><path d="M54.30444,80.28744H83.0448a17.74148,17.74148,0,0,0,1.795-.09,17.51116,17.51116,0,0,0,1.743-.266c.571-.117,1.133-.262,1.682-.433q.825-.2565,1.613-.59.7875-.333,1.534-.739.747-.4065,1.448-.88.7005-.4725,1.351-1.01.6495-.537,1.246-1.133.597-.5955,1.133-1.246.537-.651,1.011-1.352.4725-.7005.879-1.447.405-.747.739-1.535.333-.7875.591-1.612.2565-.825.432-1.682a17.55589,17.55589,0,0,0,.266-1.743,17.74893,17.74893,0,0,0,0-3.59,17.55589,17.55589,0,0,0-.266-1.743q-.1755-.8565-.432-1.682-.2565-.825-.591-1.613-.333-.7875-.739-1.534-.405-.7455-.879-1.447-.474-.7005-1.011-1.352-.5355-.6495-1.133-1.246-.5955-.5955-1.246-1.133-.651-.537-1.351-1.011-.7005-.4725-1.448-.879-.7455-.405-1.534-.739-.7875-.333-1.613-.59c-.549-.171-1.111-.316-1.682-.433a17.51116,17.51116,0,0,0-1.743-.266,17.74148,17.74148,0,0,0-1.795-.09,23.01149,23.01149,0,0,0-.117-2.331,22.77058,22.77058,0,0,0-.346-2.263q-.228-1.113-.561-2.185-.333-1.071-.767-2.094-.432-1.023-.96-1.993-.52648-.969-1.142-1.879-.6135-.9105-1.312-1.755-.696-.8445-1.471-1.619-.774-.7725-1.619-1.471-.8445-.6975-1.755-1.312-.909-.615-1.879-1.142-.969-.5265-1.993-.96-1.023-.432-2.094-.767-1.071-.333-2.185-.561a22.76765,22.76765,0,0,0-2.263-.346,23.26888,23.26888,0,0,0-4.661,0,22.74279,22.74279,0,0,0-2.264.346q-1.113.228-2.184.561t-2.094.767q-1.023.432-1.993.96-.969.5265-1.879,1.142-.9105.6135-1.755,1.312-.8445.696-1.619,1.471-.774.774-1.471,1.619-.6975.8445-1.313,1.755" fill="none" stroke="#000" stroke-miterlimit="10" stroke-width="3.6"/><path d="M56.4628,51.62944q-.3915-.9255-.869-1.803-.4755-.8775-1.033-1.701-.5565-.8235-1.187-1.588-.6315-.765-1.332-1.465-.7005-.7005-1.465-1.331-.7635-.6315-1.588-1.188-.8235-.5565-1.701-1.033-.876-.477-1.803-.869-.9255-.3915-1.895-.694a20.37476,20.37476,0,0,0-1.977-.508q-1.008-.2055-2.048-.313a21.04352,21.04352,0,0,0-4.219,0c-.693.071-1.377.176-2.048.313a20.37476,20.37476,0,0,0-1.977.508q-.969.3015-1.895.694-.9255.3915-1.803.869-.8775.4755-1.701,1.033-.8235.5565-1.588,1.188-.765.63-1.465,1.331-.7005.7005-1.332,1.465-.63.7635-1.187,1.588-.5565.8235-1.033,1.701-.477.876-.869,1.803-.3915.9255-.694,1.895a20.37476,20.37476,0,0,0-.508,1.977,20.62774,20.62774,0,0,0-.313,2.048,21.04352,21.04352,0,0,0,0,4.219,20.58294,20.58294,0,0,0,.313,2.048,20.37476,20.37476,0,0,0,.508,1.977q.3015.969.694,1.895.3915.9255.869,1.803.4755.8775,1.033,1.701.5565.8235,1.187,1.588.6315.765,1.332,1.465.699.7005,1.465,1.332.7635.63,1.588,1.187.822.5565,1.701,1.034.876.4755,1.803.868.9255.3915,1.895.694a20.37476,20.37476,0,0,0,1.977.508,20.58294,20.58294,0,0,0,2.048.313,21.00215,21.00215,0,0,0,2.109.106h7.442" fill="none" stroke="#000" stroke-miterlimit="10" stroke-width="3.6"/><path d="M73.6575,42.59254a11.4195,11.4195,0,0,0-.058-1.146,11.18188,11.18188,0,0,0-.446-2.187c-.109-.35-.235-.694-.377-1.029q-.2115-.5025-.472-.98c-.172-.317-.36-.626-.561-.924s-.417-.586-.645-.863c-.228-.276-.47-.542-.723-.795q-.381-.381-.796-.724-.4155-.342-.863-.645c-.298-.201-.606-.389-.924-.561q-.477-.2595-.98-.472-.5025-.213-1.029-.377-.5265-.1635-1.074-.276a11.01461,11.01461,0,0,0-1.113-.17,11.4195,11.4195,0,0,0-1.146-.058" fill="none" stroke="#000" stroke-miterlimit="10" stroke-width="3.6"/><line x1="36.56239" y1="72.81684" x2="60.78773" y2="72.81684" fill="none" stroke="#000" stroke-miterlimit="10" stroke-width="3.6"/><line x1="67.17656" y1="72.81684" x2="84.03183" y2="72.81684" fill="none" stroke="#000" stroke-miterlimit="10" stroke-width="3.6"/><line x1="43.93247" y1="65.44676" x2="78.36254" y2="65.44676" fill="none" stroke="#000" stroke-miterlimit="10" stroke-width="3.6"/><line x1="37.69625" y1="94.92708" x2="52.2838" y2="94.92708" fill="none" stroke="#000" stroke-miterlimit="10" stroke-width="3.6"/><line x1="57.53877" y1="94.92708" x2="81.19718" y2="94.92708" fill="none" stroke="#000" stroke-miterlimit="10" stroke-width="3.6"/><line x1="43.93247" y1="87.557" x2="76.09482" y2="87.557" fill="none" stroke="#000" stroke-miterlimit="10" stroke-width="3.6"/><line x1="29.75924" y1="87.557" x2="38.6775" y2="87.557" fill="none" stroke="#000" stroke-miterlimit="10" stroke-width="3.6"/><line x1="81.91672" y1="87.557" x2="88.56726" y2="87.557" fill="none" stroke="#000" stroke-miterlimit="10" stroke-width="3.6"/></svg>