<svg id="Layer_1" data-name="Layer 1" xmlns="http://www.w3.org/2000/svg" viewBox="0 0 120 120"><title>Forsvaret ikoner</title><path d="M40.3007,53.7992a19.16189,19.16189,0,0,1,0-27.122" fill="none" stroke="#000" stroke-miterlimit="10" stroke-width="3.6"/><path d="M34.0643,59.2041a27.00275,27.00275,0,0,1,0-38.22" fill="none" stroke="#000" stroke-miterlimit="10" stroke-width="3.6"/><path d="M46.237,48.612a11.924,11.924,0,0,1,0-16.876" fill="none" stroke="#000" stroke-miterlimit="10" stroke-width="3.6"/><path d="M78.944,26.3892a19.16193,19.16193,0,0,1,0,27.122" fill="none" stroke="#000" stroke-miterlimit="10" stroke-width="3.6"/><path d="M85.1804,20.9842a27.00275,27.00275,0,0,1,0,38.22" fill="none" stroke="#000" stroke-miterlimit="10" stroke-width="3.6"/><path d="M73.0077,31.5764a11.924,11.924,0,0,1,0,16.876" fill="none" stroke="#000" stroke-miterlimit="10" stroke-width="3.6"/><path d="M53.7464,39.9008a6.5065,6.5065,0,1,0,6.507-6.507A6.50729,6.50729,0,0,0,53.7464,39.9008Z" fill="none" stroke="#000" stroke-miterlimit="10" stroke-width="3.6"/><line x1="60.253" y1="71.099" x2="60.253" y2="96.958" fill="none" stroke="#000" stroke-miterlimit="10" stroke-width="3.6"/><line x1="60.253" y1="50.94" x2="60.253" y2="75.252" fill="none" stroke="#000" stroke-miterlimit="10" stroke-width="3.6"/><line x1="60.253" y1="46.4073" x2="41.321" y2="95.7903" fill="none" stroke="#000" stroke-miterlimit="10" stroke-width="3.6"/><line x1="60.253" y1="46.4073" x2="79.185" y2="95.7903" fill="none" stroke="#000" stroke-miterlimit="10" stroke-width="3.6"/><line x1="46.237" y1="80.9341" x2="75.055" y2="80.9341" fill="none" stroke="#000" stroke-miterlimit="10" stroke-width="3.6"/></svg>