<svg id="Layer_1" data-name="Layer 1" xmlns="http://www.w3.org/2000/svg" viewBox="0 0 120 120"><title>Forsvaret ikoner</title><path d="M73.1905,43.4809a12.7365,12.7365,0,1,1-12.737-12.737A12.73695,12.73695,0,0,1,73.1905,43.4809Z" fill="none" stroke="#000" stroke-miterlimit="10" stroke-width="3.6"/><path d="M69.9826,63.837a29.92653,29.92653,0,0,1,8.144,3.399,18.11618,18.11618,0,0,1,5.491,5.042,10.86354,10.86354,0,0,1,2.013,6.174V92.354" fill="none" stroke="#000" stroke-miterlimit="10" stroke-width="3.6"/><path d="M34.388,92.3543V78.4513a10.87347,10.87347,0,0,1,2.013-6.174,18.12621,18.12621,0,0,1,5.491-5.041,29.90846,29.90846,0,0,1,8.144-3.399" fill="none" stroke="#000" stroke-miterlimit="10" stroke-width="3.6"/><circle cx="91.595" cy="48.257" r="8.701" fill="none" stroke="#000" stroke-miterlimit="10" stroke-width="3.6"/><path d="M98.1045,62.1634a20.44367,20.44367,0,0,1,5.564,2.322,12.39632,12.39632,0,0,1,3.751,3.444,7.425,7.425,0,0,1,1.375,4.218v9.498" fill="none" stroke="#000" stroke-miterlimit="10" stroke-width="3.6"/><path d="M76.049,66.6334c.886-1.296,1.282-1.167,2.865-2.148a20.44353,20.44353,0,0,1,5.564-2.322" fill="none" stroke="#000" stroke-miterlimit="10" stroke-width="3.6"/><circle cx="28.424" cy="48.257" r="8.701" fill="none" stroke="#000" stroke-miterlimit="10" stroke-width="3.6"/><path d="M11.2242,81.6453v-9.498a7.42626,7.42626,0,0,1,1.376-4.218,12.37285,12.37285,0,0,1,3.751-3.444,20.4234,20.4234,0,0,1,5.563-2.322" fill="none" stroke="#000" stroke-miterlimit="10" stroke-width="3.6"/><path d="M35.5409,62.1634a20.44353,20.44353,0,0,1,5.564,2.322c1.583.981,1.979.852,2.865,2.148" fill="none" stroke="#000" stroke-miterlimit="10" stroke-width="3.6"/></svg>