<svg id="Layer_1" data-name="Layer 1" xmlns="http://www.w3.org/2000/svg" viewBox="0 0 120 120"><title>Forsvaret ikoner</title><line x1="52.7059" y1="85.1272" x2="30.5119" y2="94.8782" fill="none" stroke="#000" stroke-miterlimit="10" stroke-width="3.6"/><line x1="87.8656" y1="94.8778" x2="65.6746" y2="85.1268" fill="none" stroke="#000" stroke-miterlimit="10" stroke-width="3.6"/><path d="M49.0211,77.2057c-2.066-.861-3.541-3.461-3.616-7.834-.066-3.864,2.798-6.089,5.596-9.47a14.62843,14.62843,0,0,0,2.669-6.027,10.23552,10.23552,0,0,1,1.98,9.815c-1.088,3.186-.48,5.926,3.011,6.861,2.671.715,5.707-2.373,4.221-6.603-1.119-3.185,2.496-7.06,2.496-7.06,1.378,4.822,6.13,6.897,5.659,12.644-.275,3.35-2.685,7.443-2.685,7.443,8.306-2.197,15.384-10.658,15.384-19.814,0-10.949-10.609-18.696-14.656-27.65-2.095-4.636-1.291-13.688-1.291-13.688-4.821,2.669-7.404,5.768-6.693,11.637.633,5.23,4.11,7.906,3.508,12.727-.413,3.296-3.52,6.313-6.371,5.337-3.272-1.119-3.635-3.68-4.219-7.403a11.05118,11.05118,0,0,0-5.165-7.318,23.25352,23.25352,0,0,1-1.292,9.9c-3.06,9.251-14.199,8.672-14.199,19.858,0,4.193,2.165,7.526,4.871,10.055" fill="none" stroke="#000" stroke-miterlimit="10" stroke-width="3.6"/><line x1="59.1889" y1="88.0754" x2="59.1889" y2="106.4004" fill="none" stroke="#000" stroke-miterlimit="10" stroke-width="3.6"/></svg>