<svg id="Layer_1" data-name="Layer 1" xmlns="http://www.w3.org/2000/svg" viewBox="0 0 120 120"><title>Forsvaret ikoner</title><path d="M40.8354,72.8233H23.8974a4.08,4.08,0,0,0,0,8.16h2.518" fill="none" stroke="#000" stroke-miterlimit="10" stroke-width="3.6"/><path d="M73.7247,89.1429h5.659a4.07977,4.07977,0,0,0,4.08-4.08,4.08041,4.08041,0,0,1,4.08-4.08h6.528a4.08,4.08,0,0,0,0-8.16H76.2677" fill="none" stroke="#000" stroke-miterlimit="10" stroke-width="3.6"/><path d="M32.6184,80.9831h2.703a4.08,4.08,0,0,1,0,8.16h-3.264a4.08,4.08,0,0,0,0,8.16h9.792a4.07956,4.07956,0,0,1,4.08,4.079,4.07913,4.07913,0,0,0,4.08,4.08h16.319a4.0795,4.0795,0,1,0,0-8.159h-4.896a4.08,4.08,0,0,1,0-8.16h5.144" fill="none" stroke="#000" stroke-miterlimit="10" stroke-width="3.6"/><rect x="46.375" y="31.993" width="24.934" height="41.436" fill="none" stroke="#000" stroke-miterlimit="10" stroke-width="3.6"/><line x1="43.1216" y1="38.4777" x2="74.5606" y2="38.4777" fill="none" stroke="#000" stroke-miterlimit="10" stroke-width="3.6"/><line x1="43.1216" y1="67.3548" x2="74.5606" y2="67.3548" fill="none" stroke="#000" stroke-miterlimit="10" stroke-width="3.6"/><polyline points="76.466 58.741 89.26 58.741 89.26 17.305 64.326 17.305 64.326 27.706" fill="none" stroke="#000" stroke-miterlimit="10" stroke-width="3.6"/><line x1="61.0731" y1="23.7901" x2="92.5121" y2="23.7901" fill="none" stroke="#000" stroke-miterlimit="10" stroke-width="3.6"/><line x1="76.8625" y1="52.1003" x2="92.5125" y2="52.1003" fill="none" stroke="#000" stroke-miterlimit="10" stroke-width="3.6"/></svg>