<svg id="Layer_1" data-name="Layer 1" xmlns="http://www.w3.org/2000/svg" viewBox="0 0 120 120"><title>Forsvaret ikoner</title><path d="M79.213,60.30685a12.1902,12.1902,0,1,1-1.573,23.10814" fill="none" stroke="#000" stroke-miterlimit="10" stroke-width="3.6"/><path d="M88.54178,61.84118A9.4607,9.4607,0,0,0,75.1,48.69959a12.01773,12.01773,0,0,0-16.8183,4.23021" fill="none" stroke="#000" stroke-miterlimit="10" stroke-width="3.6"/><path d="M74.37869,54.62235a7.4633,7.4633,0,0,1,.7191,13.74494" fill="none" stroke="#000" stroke-miterlimit="10" stroke-width="3.6"/><line x1="60.79855" y1="49.55342" x2="46.51997" y2="35.27484" fill="none" stroke="#000" stroke-miterlimit="10" stroke-width="3.6"/><line x1="39.05909" y1="27.81396" x2="32.88457" y2="21.63944" fill="none" stroke="#000" stroke-miterlimit="10" stroke-width="3.6"/><line x1="61.96093" y1="38.87665" x2="48.45417" y2="25.36988" fill="none" stroke="#000" stroke-miterlimit="10" stroke-width="3.6"/><path d="M16.36137,35.95605c1.54363.51455,10.56878,9.68806,10.56878,9.68806l11.87321,2.99116,12.09176,20.839,15.179,10.80541L77.39876,98.56h23.54036" fill="none" stroke="#000" stroke-miterlimit="10" stroke-width="3.6"/></svg>