<svg id="Layer_1" data-name="Layer 1" xmlns="http://www.w3.org/2000/svg" viewBox="0 0 120 120"><title>Forsvaret ikoner</title><path d="M54.6268,76.9343a14.77484,14.77484,0,0,1,22.105-6.811l.087-.096,12.248-15.328c2.553-3.01,4.94-2.884,7.324-1.504a4.99381,4.99381,0,0,1,1.813,6.827l-22.162,36.699H62.8378" fill="none" stroke="#000" stroke-miterlimit="10" stroke-width="3.6"/><path d="M44.5098,46.5838v-9.176a5.05639,5.05639,0,0,0-5.05-5.009,5.12313,5.12313,0,0,0-5.16,4.976v39.448" fill="none" stroke="#000" stroke-miterlimit="10" stroke-width="3.6"/><path d="M74.3107,59.8122V28.1572a4.86386,4.86386,0,0,0-4.824-5.011,5.009,5.009,0,0,0-5.024,4.976v31.69" fill="none" stroke="#000" stroke-miterlimit="10" stroke-width="3.6"/><path d="M44.5098,59.8122V28.3742a5.01658,5.01658,0,0,1,10.033.033v6.341" fill="none" stroke="#000" stroke-miterlimit="10" stroke-width="3.6"/><path d="M54.5424,59.8122V21.7132a4.99253,4.99253,0,1,1,9.985.033l-.065,6.344" fill="none" stroke="#000" stroke-miterlimit="10" stroke-width="3.6"/></svg>