<svg id="Layer_1" data-name="Layer 1" xmlns="http://www.w3.org/2000/svg" viewBox="0 0 120 120"><title>Forsvaret ikoner</title><path d="M85.1737,43.2925a27.88992,27.88992,0,1,0-36.56,36.55l1.36-3.31a24.211,24.211,0,1,1,19,0l1.41,3.31a28.02,28.02,0,0,0,14.86-36.58Z"/><path d="M76.3337,61.2725a18.31012,18.31012,0,0,0-9.731-23.996l-.009-.004a18.30835,18.30835,0,0,0-14.25,33.73l1.41-3.32a14.74443,14.74443,0,1,1,11.44.01l1.4,3.32a18.40788,18.40788,0,0,0,9.74-9.74"/><path d="M66.4337,54.1425a7.00022,7.00022,0,1,0-8.76,6.72v36.07h3.6v-36.07a7.00021,7.00021,0,0,0,5.16-6.72"/></svg>