<svg id="Layer_1" data-name="Layer 1" xmlns="http://www.w3.org/2000/svg" viewBox="0 0 120 120"><title>Forsvaret ikoner</title><polyline points="29.581 80.561 29.581 30.95 49.885 30.95 49.885 56.76" fill="none" stroke="#000" stroke-miterlimit="10" stroke-width="3.6"/><path d="M29.5813,84.4116v-7.165a6.56937,6.56937,0,0,1,6.57-6.57h53.461v20.305H36.1513A6.57,6.57,0,0,1,29.5813,84.4116Z" fill="none" stroke="#000" stroke-miterlimit="10" stroke-width="3.6"/><polyline points="35.888 70.411 67.756 38.89 82.114 53.247 64.678 70.682" fill="none" stroke="#000" stroke-miterlimit="10" stroke-width="3.6"/><line x1="36.3675" y1="48.3737" x2="49.8855" y2="48.3737" fill="none" stroke="#000" stroke-miterlimit="10" stroke-width="3.6"/><line x1="72.3617" y1="70.6767" x2="72.3617" y2="84.6927" fill="none" stroke="#000" stroke-miterlimit="10" stroke-width="3.6"/><line x1="54.2541" y1="70.6767" x2="54.2541" y2="90.9807" fill="none" stroke="#000" stroke-miterlimit="10" stroke-width="3.6"/><line x1="58.5144" y1="56.6355" x2="68.3994" y2="66.5205" fill="none" stroke="#000" stroke-miterlimit="10" stroke-width="3.6"/><path d="M41.0934,80.8289a2.39,2.39,0,1,1-2.39-2.39,2.38995,2.38995,0,0,1,2.39,2.39"/></svg>