<svg id="Layer_1" data-name="Layer 1" xmlns="http://www.w3.org/2000/svg" viewBox="0 0 120 120"><title>Forsvaret ikoner</title><circle cx="27.92134" cy="99.24765" r="3.65882" fill="none" stroke="#000" stroke-miterlimit="10" stroke-width="3.6"/><polyline points="23.217 77.916 23.217 28.097 27.921 23.392 32.626 28.097 32.626 77.916" fill="none" stroke="#000" stroke-miterlimit="10" stroke-width="3.6"/><line x1="15.10805" y1="83.758" x2="40.73412" y2="83.758" fill="none" stroke="#000" stroke-miterlimit="10" stroke-width="3.6"/><line x1="27.92134" y1="84.74306" x2="27.92134" y2="94.59885" fill="none" stroke="#000" stroke-miterlimit="10" stroke-width="3.6"/><circle cx="59.23995" cy="99.24765" r="3.65882" fill="none" stroke="#000" stroke-miterlimit="10" stroke-width="3.6"/><polyline points="54.536 77.916 54.536 28.097 59.24 23.392 63.946 28.097 63.946 77.916" fill="none" stroke="#000" stroke-miterlimit="10" stroke-width="3.6"/><line x1="46.42732" y1="83.758" x2="72.05338" y2="83.758" fill="none" stroke="#000" stroke-miterlimit="10" stroke-width="3.6"/><line x1="59.24062" y1="84.74306" x2="59.24062" y2="94.59885" fill="none" stroke="#000" stroke-miterlimit="10" stroke-width="3.6"/><circle cx="90.55923" cy="99.24765" r="3.65882" fill="none" stroke="#000" stroke-miterlimit="10" stroke-width="3.6"/><polyline points="85.855 77.916 85.855 28.097 90.56 23.392 95.264 28.097 95.264 77.916" fill="none" stroke="#000" stroke-miterlimit="10" stroke-width="3.6"/><line x1="77.74659" y1="83.758" x2="103.37265" y2="83.758" fill="none" stroke="#000" stroke-miterlimit="10" stroke-width="3.6"/><line x1="90.55988" y1="84.74306" x2="90.55988" y2="94.59885" fill="none" stroke="#000" stroke-miterlimit="10" stroke-width="3.6"/></svg>