<svg id="Layer_1" data-name="Layer 1" xmlns="http://www.w3.org/2000/svg" viewBox="0 0 120 120"><title>Forsvaret ikoner</title><path d="M103.608,81.9202a16.6335,16.6335,0,1,1-16.634-16.634A16.63426,16.63426,0,0,1,103.608,81.9202Z" fill="none" stroke="#000" stroke-miterlimit="10" stroke-width="3.6"/><path d="M49.7614,81.9202a16.6335,16.6335,0,1,1-16.634-16.634A16.63426,16.63426,0,0,1,49.7614,81.9202Z" fill="none" stroke="#000" stroke-miterlimit="10" stroke-width="3.6"/><path d="M24.8137,83.8789a10.949,10.949,0,0,1,10.949-10.949" fill="none" stroke="#000" stroke-miterlimit="10" stroke-width="3.6"/><path d="M96.3815,80.5906a10.949,10.949,0,0,1-10.949,10.949" fill="none" stroke="#000" stroke-miterlimit="10" stroke-width="3.6"/><circle cx="71.9236" cy="33.8275" r="7.312" fill="none" stroke="#000" stroke-miterlimit="10" stroke-width="3.6"/><path d="M82.7313,57.9764h-5.552l-15.256-12.829a4.0441,4.0441,0,0,0-5.462.235l-13.005,13.005,14.394,10.282v18.717" fill="none" stroke="#000" stroke-miterlimit="10" stroke-width="3.6"/><line x1="15.5176" y1="41.8676" x2="34.9896" y2="41.8676" fill="none" stroke="#000" stroke-miterlimit="10" stroke-width="3.6"/><line x1="29.3804" y1="50.3392" x2="39.4784" y2="50.3392" fill="none" stroke="#000" stroke-miterlimit="10" stroke-width="3.6"/></svg>