<svg id="Layer_1" data-name="Layer 1" xmlns="http://www.w3.org/2000/svg" viewBox="0 0 120 120"><title>Forsvaret ikoner</title><line x1="59.1632" y1="30.1988" x2="59.1632" y2="83.6158" fill="none" stroke="#000" stroke-miterlimit="10" stroke-width="3.6"/><polygon points="94.595 93.753 76.879 93.753 59.163 93.753 41.448 93.753 23.732 93.753 23.732 90.791 23.732 89.538 23.732 86.577 27.727 83.615 41.448 83.615 59.163 83.615 76.879 83.615 90.6 83.615 94.595 86.577 94.595 89.538 94.595 90.791 94.595 93.753" fill="none" stroke="#000" stroke-miterlimit="10" stroke-width="3.6"/><polyline points="30.895 49.135 24.472 64.425 34.19 64.425 42.599 64.425 34.19 41.605 85.445 29.865 82.167 37.563 75.728 52.684 85.445 52.684 93.854 52.684 88.775 36.138" fill="none" stroke="#000" stroke-miterlimit="10" stroke-width="3.6"/></svg>