<svg id="Layer_1" data-name="Layer 1" xmlns="http://www.w3.org/2000/svg" viewBox="0 0 120 120"><title>Forsvaret ikoner</title><path d="M93.9824,70.1962l9.549,3.333c3.744,1.509,3.973,4.367,3.982,5.181l.009,1.188v15.319" fill="none" stroke="#000" stroke-miterlimit="10" stroke-width="3.6"/><path d="M88.3919,65.1771a10.3641,10.3641,0,0,1-.223-20.727h.122a10.3638,10.3638,0,0,1,.101,20.727Z" fill="none" stroke="#000" stroke-miterlimit="10" stroke-width="3.6"/><line x1="46.0572" y1="84.9002" x2="38.1702" y2="54.8722" fill="none" stroke="#000" stroke-miterlimit="10" stroke-width="3.6"/><path d="M82.9671,70.1962l-8.917,3.249a7.11841,7.11841,0,0,0-2.339,1.483l-5.53,9.051-17.653.149a3.69439,3.69439,0,0,0-3.694,3.695v4.484h10.838" fill="none" stroke="#000" stroke-miterlimit="10" stroke-width="3.6"/><polyline points="17.807 91.701 17.807 25.331 103.665 25.331" fill="none" stroke="#000" stroke-miterlimit="10" stroke-width="3.6"/><line x1="9.9356" y1="99.3336" x2="67.7216" y2="99.3336" fill="none" stroke="#000" stroke-miterlimit="10" stroke-width="3.6"/></svg>