<svg id="Layer_1" data-name="Layer 1" xmlns="http://www.w3.org/2000/svg" viewBox="0 0 120 120"><title>Forsvaret ikoner</title><path d="M69.70121,72.39311,87.26012,91.96279l2.71968-2.71966L72.78533,55.07307,85.97393,41.8845c7.08807-7.08809,4.89928-11.61289,4.77789-11.81434l-.00905-.009c-.20143-.12012-5.27634-1.76139-12.36311,5.3254L65.19107,48.57512,31.56985,30.83187l-3.88575,3.887L47.97948,50.86125" fill="none" stroke="#000" stroke-miterlimit="10" stroke-width="3.6"/><polyline points="41.29 74.08 33.444 82.29 22.383 80.231 19.266 83.349 30.793 89.531 37.465 101.547 40.582 98.43 38.521 87.369 46.733 79.522" fill="none" stroke="#000" stroke-miterlimit="10" stroke-width="3.6"/><line x1="82.84587" y1="61.83324" x2="78.54318" y2="66.13593" fill="none" stroke="#000" stroke-miterlimit="10" stroke-width="3.6"/><line x1="86.67259" y1="69.66884" x2="82.31049" y2="74.03096" fill="none" stroke="#000" stroke-miterlimit="10" stroke-width="3.6"/><line x1="59.44653" y1="38.43454" x2="54.96433" y2="42.91673" fill="none" stroke="#000" stroke-miterlimit="10" stroke-width="3.6"/><line x1="51.61104" y1="34.60717" x2="46.64976" y2="39.56845" fill="none" stroke="#000" stroke-miterlimit="10" stroke-width="3.6"/><circle cx="52.13662" cy="68.71927" r="12.10548" fill="none" stroke="#000" stroke-miterlimit="10" stroke-width="3.6"/></svg>