<svg id="Layer_1" data-name="Layer 1" xmlns="http://www.w3.org/2000/svg" viewBox="0 0 120 120"><title>Forsvaret ikoner</title><path d="M73.3262,44.4893a13.6425,13.6425,0,1,1-13.642-13.642A13.64235,13.64235,0,0,1,73.3262,44.4893Z" fill="none" stroke="#000" stroke-miterlimit="10" stroke-width="3.6"/><path d="M69.8901,66.2927a32.05378,32.05378,0,0,1,8.723,3.641,19.38384,19.38384,0,0,1,5.881,5.4,11.63832,11.63832,0,0,1,2.157,6.613v14.891" fill="none" stroke="#000" stroke-miterlimit="10" stroke-width="3.6"/><path d="M31.7648,96.8376V81.9466a11.63832,11.63832,0,0,1,2.157-6.613,19.38377,19.38377,0,0,1,5.881-5.4,32.05378,32.05378,0,0,1,8.723-3.641" fill="none" stroke="#000" stroke-miterlimit="10" stroke-width="3.6"/></svg>