<svg id="Layer_1" data-name="Layer 1" xmlns="http://www.w3.org/2000/svg" viewBox="0 0 120 120"><title>Forsvaret ikoner</title><path d="M37.0751,30.2389q1.302-1.089,2.705-2.05,1.4025-.96,2.898-1.784,1.494-.822,3.072-1.5a34.66134,34.66134,0,0,1,6.596-2.075,34.82252,34.82252,0,0,1,3.49-.54,35.17257,35.17257,0,0,1,7.186,0,34.80324,34.80324,0,0,1,3.489.54,34.64107,34.64107,0,0,1,6.597,2.075q1.5765.6765,3.072,1.5,1.494.822,2.898,1.784,1.401.96,2.705,2.05,1.302,1.089,2.496,2.299,1.191,1.2075,2.268,2.529,1.074,1.3185,2.023,2.741.9465,1.422,1.76,2.937.8115,1.51351,1.48,3.113.666,1.5975,1.182,3.272.513,1.67249.866,3.413.351,1.7385.532,3.536.18,1.797.181,3.642,0,1.8435-.181,3.641-.18,1.7955-.532,3.536-.3525,1.74-.866,3.414-.5145,1.6725-1.182,3.272-.6675,1.5975-1.48,3.113-.8115,1.5135-1.76,2.936-.948,1.422-2.023,2.742-1.0755,1.3185-2.268,2.529-1.1925,1.209-2.496,2.299-1.302,1.0875-2.705,2.05-1.40248.96-2.898,1.784-1.494.822-3.072,1.499a34.49623,34.49623,0,0,1-10.086,2.615,35.17257,35.17257,0,0,1-7.186,0,34.52218,34.52218,0,0,1-10.086-2.615q-1.5765-.675-3.072-1.499-1.494-.8235-2.898-1.784-1.401-.96-2.705-2.05-1.302-1.089-2.496-2.299-1.1925-1.209-2.268-2.529-1.074-1.3185-2.023-2.742-.9465-1.4205-1.76-2.936-.8115-1.5135-1.48-3.113-.6675-1.599-1.182-3.272-.513-1.674-.866-3.414-.351-1.7385-.532-3.536-.18-1.7955-.182-3.641,0-1.845.182-3.642.18-1.7955.532-3.536.351-1.7385.866-3.413.5145-1.67252,1.182-3.272.6675-1.5975,1.48-3.113.8115-1.5135,1.76-2.937.948-1.4205,2.023-2.741" fill="none" stroke="#000" stroke-miterlimit="10" stroke-width="3.6"/><polyline points="59.429 37.017 59.429 44.968 59.429 52.918 59.429 60.869 59.429 68.819" fill="none" stroke="#000" stroke-miterlimit="10" stroke-width="3.6"/><polyline points="59.429 73.924 59.429 75.325 59.429 76.725 59.429 78.126 59.429 79.526" fill="none" stroke="#000" stroke-miterlimit="10" stroke-width="3.6"/></svg>