<svg id="Layer_1" data-name="Layer 1" xmlns="http://www.w3.org/2000/svg" viewBox="0 0 120 120"><title>Forsvaret ikoner</title><path d="M65.59461,45.173a5.75378,5.75378,0,1,1-5.45933-7.57289V30.67042" fill="none" stroke="#000" stroke-miterlimit="10" stroke-width="3.6"/><line x1="67.07482" y1="50.88806" x2="86.82757" y2="58.86603" fill="none" stroke="#000" stroke-miterlimit="10" stroke-width="3.6"/><line x1="33.14923" y1="58.86603" x2="57.40727" y2="49.0768" fill="none" stroke="#000" stroke-miterlimit="10" stroke-width="3.6"/><polyline points="35.83 103.809 97.095 103.809 97.095 65.294 22.881 65.294 22.881 103.809 35.83 103.809" fill="none" stroke="#000" stroke-miterlimit="10" stroke-width="3.6"/><line x1="90.03565" y1="98.70619" x2="90.03565" y2="70.96313" fill="none" stroke="#000" stroke-miterlimit="10" stroke-width="3.6"/><line x1="82.52384" y1="98.70619" x2="82.52384" y2="70.96313" fill="none" stroke="#000" stroke-miterlimit="10" stroke-width="3.6"/><line x1="75.01202" y1="98.70619" x2="75.01202" y2="70.96313" fill="none" stroke="#000" stroke-miterlimit="10" stroke-width="3.6"/><line x1="67.50021" y1="98.70619" x2="67.50021" y2="70.96313" fill="none" stroke="#000" stroke-miterlimit="10" stroke-width="3.6"/><line x1="59.9884" y1="98.70619" x2="59.9884" y2="70.96313" fill="none" stroke="#000" stroke-miterlimit="10" stroke-width="3.6"/><line x1="52.47659" y1="98.70619" x2="52.47659" y2="70.96313" fill="none" stroke="#000" stroke-miterlimit="10" stroke-width="3.6"/><line x1="44.96478" y1="98.70619" x2="44.96478" y2="70.96313" fill="none" stroke="#000" stroke-miterlimit="10" stroke-width="3.6"/><line x1="37.45297" y1="98.70619" x2="37.45297" y2="70.96313" fill="none" stroke="#000" stroke-miterlimit="10" stroke-width="3.6"/><line x1="29.94116" y1="98.70619" x2="29.94116" y2="70.96313" fill="none" stroke="#000" stroke-miterlimit="10" stroke-width="3.6"/><circle cx="59.94518" cy="27.77137" r="3.80268" fill="none" stroke="#000" stroke-miterlimit="10" stroke-width="3.6"/><line x1="54.63616" y1="12.54532" x2="56.1425" y2="27.8372" fill="none" stroke="#000" stroke-miterlimit="10" stroke-width="3.6"/><line x1="63.72221" y1="27.8372" x2="65.22855" y2="12.54532" fill="none" stroke="#000" stroke-miterlimit="10" stroke-width="3.6"/></svg>