<svg id="Layer_1" data-name="Layer 1" xmlns="http://www.w3.org/2000/svg" viewBox="0 0 120 120"><title>Forsvaret ikoner</title><line x1="32.38118" y1="17.96042" x2="60.21391" y2="36.78584" fill="none" stroke="#000" stroke-miterlimit="10" stroke-width="3.6"/><polyline points="65.426 54.438 65.426 39.45 81.776 39.45 81.776 54.438" fill="none" stroke="#000" stroke-miterlimit="10" stroke-width="3.6"/><polyline points="90.996 79.427 90.996 68.18 82.133 61.018 65.07 61.018 56.206 68.18 56.206 79.427" fill="none" stroke="#000" stroke-miterlimit="10" stroke-width="3.6"/><rect x="22.39735" y="38.62855" width="20.41527" height="20.41532" fill="none" stroke="#000" stroke-miterlimit="10" stroke-width="3.6"/><line x1="32.19699" y1="24.13728" x2="32.19699" y2="32.98513" fill="none" stroke="#000" stroke-miterlimit="10" stroke-width="3.6"/><polyline points="97.404 85.059 43.641 85.059 43.641 91.963" fill="none" stroke="#000" stroke-miterlimit="10" stroke-width="3.6"/><path d="M55.45928,98.95458a3.67133,3.67133,0,0,1-2.31918-.75579,5.72848,5.72848,0,0,0-6.58025,0,3.93123,3.93123,0,0,1-4.63515,0,5.72608,5.72608,0,0,0-6.57873,0,4.0592,4.0592,0,0,1-2.31755.75579" fill="none" stroke="#000" stroke-miterlimit="10" stroke-width="3.6"/></svg>