<svg id="Layer_1" data-name="Layer 1" xmlns="http://www.w3.org/2000/svg" viewBox="0 0 120 120"><title>Forsvaret ikoner</title><line x1="26.86063" y1="38.92854" x2="67.25855" y2="38.92854" fill="none" stroke="#000" stroke-miterlimit="10" stroke-width="3.6"/><line x1="68.58323" y1="38.92854" x2="108.98115" y2="38.92854" fill="none" stroke="#000" stroke-miterlimit="10" stroke-width="3.6"/><polyline points="50.936 80.327 56.896 83.701 90.135 83.701 95.308 80.145" fill="none" stroke="#000" stroke-miterlimit="10" stroke-width="3.6"/><path d="M56.15569,73.71777H92.86848s7.53343-.8891,7.53343-5.725c0-3.97146-6.535-6.00842-6.535-6.00842l-7.80572-8.53183H62.21392L48.88965,58.71225,22.1316,55.72166l-5.62835-7.39659-3.13109,1.65472,5.76422,10.18932,27.60649,5.31376Z" fill="none" stroke="#000" stroke-miterlimit="10" stroke-width="3.6"/><polyline points="45.815 52.288 48.407 48.699 67.376 48.699" fill="none" stroke="#000" stroke-miterlimit="10" stroke-width="3.6"/><polyline points="77.735 53.078 71.018 44.094 63.394 44.094 61.034 49.357" fill="none" stroke="#000" stroke-miterlimit="10" stroke-width="3.6"/><line x1="67.62647" y1="35.11409" x2="67.62647" y2="42.60031" fill="none" stroke="#000" stroke-miterlimit="10" stroke-width="3.6"/></svg>