<svg id="Layer_1" data-name="Layer 1" xmlns="http://www.w3.org/2000/svg" viewBox="0 0 120 120"><title>Forsvaret ikoner</title><polygon points="56.505 80.61 51.645 86.183 38.427 86.183 33.751 81.507 33.751 65.92 40.01 61.645 78.318 61.645 84.577 65.92 84.577 81.507 79.901 86.183 66.683 86.183 61.823 80.61 56.505 80.61" fill="none" stroke="#000" stroke-miterlimit="10" stroke-width="3.6"/><polyline points="45.488 44.089 40.026 44.089 40.026 56.08" fill="none" stroke="#000" stroke-miterlimit="10" stroke-width="3.6"/><path d="M40.0258,90.5531l.001,4.286a3.45886,3.45886,0,0,0,1.014,2.447l3.753,3.751a3.34228,3.34228,0,0,0,2.439,1.016h7.431a5.52822,5.52822,0,1,0-.361-5.82l-4.235-.002" fill="none" stroke="#000" stroke-miterlimit="10" stroke-width="3.6"/><circle cx="47.3842" cy="34.2677" r="3.993" fill="none" stroke="#000" stroke-miterlimit="10" stroke-width="3.6"/><path d="M66.8665,25.8177a5.0545,5.0545,0,1,1-5.055-5.055A5.05474,5.05474,0,0,1,66.8665,25.8177Z" fill="none" stroke="#000" stroke-miterlimit="10" stroke-width="3.6"/></svg>