<svg id="Layer_1" data-name="Layer 1" xmlns="http://www.w3.org/2000/svg" viewBox="0 0 120 120"><title>Forsvaret ikoner</title><circle cx="87.6216" cy="77.9857" r="8.328" fill="none" stroke="#000" stroke-miterlimit="10" stroke-width="3.6"/><circle cx="51.7625" cy="77.9857" r="8.328" fill="none" stroke="#000" stroke-miterlimit="10" stroke-width="3.6"/><circle cx="30.0006" cy="77.9857" r="8.328" fill="none" stroke="#000" stroke-miterlimit="10" stroke-width="3.6"/><polyline points="9.494 39.435 69.768 39.435 69.768 66.477 62.46 66.477 60.09 62.379 21.672 62.379 18.611 66.477 11.473 66.477 11.473 45.893 69.768 45.893" fill="none" stroke="#000" stroke-miterlimit="10" stroke-width="3.6"/><polyline points="82.787 48.443 82.787 39.435 102.74 39.435 107.669 48.613 107.669 70.198 100.87 70.198 96.788 63.571" fill="none" stroke="#000" stroke-miterlimit="10" stroke-width="3.6"/><polyline points="69.769 66.478 77.077 66.478 79.294 63.06 107.67 63.06" fill="none" stroke="#000" stroke-miterlimit="10" stroke-width="3.6"/><line x1="82.7875" y1="39.4353" x2="82.7875" y2="63.0593" fill="none" stroke="#000" stroke-miterlimit="10" stroke-width="3.6"/><line x1="38.3286" y1="77.9857" x2="43.4346" y2="77.9857" fill="none" stroke="#000" stroke-miterlimit="10" stroke-width="3.6"/><polyline points="95.95 39.435 95.95 51.988 107.67 51.988" fill="none" stroke="#000" stroke-miterlimit="10" stroke-width="3.6"/><path d="M32.48,77.9172a2.3025,2.3025,0,1,1-2.303-2.303,2.30289,2.30289,0,0,1,2.303,2.303"/><path d="M54.0653,77.9172a2.3025,2.3025,0,1,1-2.303-2.303,2.30289,2.30289,0,0,1,2.303,2.303"/><path d="M89.9244,77.9172a2.3025,2.3025,0,1,1-2.303-2.303,2.30289,2.30289,0,0,1,2.303,2.303"/></svg>