<svg id="Layer_1" data-name="Layer 1" xmlns="http://www.w3.org/2000/svg" viewBox="0 0 120 120"><title>Forsvaret ikoner</title><line x1="41.5296" y1="42.0495" x2="58.3716" y2="42.0495" fill="none" stroke="#000" stroke-miterlimit="10" stroke-width="3.6"/><line x1="72.571" y1="44.9883" x2="91.227" y2="44.9883" fill="none" stroke="#000" stroke-miterlimit="10" stroke-width="3.6"/><line x1="41.5296" y1="49.1147" x2="49.5366" y2="49.1147" fill="none" stroke="#000" stroke-miterlimit="10" stroke-width="3.6"/><polyline points="81.413 65.959 81.413 98.491 33.508 98.491 33.508 35.76 33.508 32.17 33.508 20.639 65.863 20.639 81.413 20.639 81.413 29.519" fill="none" stroke="#000" stroke-miterlimit="10" stroke-width="3.6"/><polygon points="102.074 59.763 102.074 47.354 102.074 35.536 65.719 35.536 65.719 59.763 65.719 65.501 74.787 59.763 102.074 59.763" fill="none" stroke="#000" stroke-miterlimit="10" stroke-width="3.6"/><line x1="81.075" y1="79.2262" x2="33.847" y2="79.2262" fill="none" stroke="#000" stroke-miterlimit="10" stroke-width="3.6"/><path d="M60.286,89.9772a3.45966,3.45966,0,1,1-2.269-4.334,3.45892,3.45892,0,0,1,2.269,4.334"/></svg>