<svg id="Layer_1" data-name="Layer 1" xmlns="http://www.w3.org/2000/svg" viewBox="0 0 120 120"><title>Forsvaret ikoner</title><path d="M33.6086,81.569V69.066a2.84508,2.84508,0,0,1,2.691-2.977h46.533a2.84508,2.84508,0,0,1,2.691,2.977V81.569" fill="none" stroke="#000" stroke-miterlimit="10" stroke-width="3.6"/><line x1="34.8461" y1="74.0636" x2="84.28609" y2="74.0636" fill="none" stroke="#000" stroke-miterlimit="10" stroke-width="3.6"/><path d="M92.9283,82.9448V58.3058a6.40891,6.40891,0,0,0-6.408-6.409H31.7463a6.40891,6.40891,0,0,0-6.408,6.409v24.639Z" fill="none" stroke="#000" stroke-linecap="round" stroke-miterlimit="10" stroke-width="3.6"/><path d="M88.2056,51.8972l-1.198-17.746a6.61712,6.61712,0,0,0-6.602-6.171H39.1866a6.61574,6.61574,0,0,0-6.602,6.171l-1.672,17.448" fill="none" stroke="#000" stroke-linecap="round" stroke-miterlimit="10" stroke-width="3.6"/><path d="M92.9283,58.2153h8.495l1.22-7.819a5.49367,5.49367,0,0,0-5.429-6.341h-4.286" fill="none" stroke="#000" stroke-miterlimit="10" stroke-width="3.6"/><path d="M26.204,58.2153H17.709l-1.22-7.819a5.49366,5.49366,0,0,1,5.429-6.341h4.286" fill="none" stroke="#000" stroke-miterlimit="10" stroke-width="3.6"/><path d="M92.9283,83.0915v9.198a2.58094,2.58094,0,0,1-2.581,2.581h-9.452a2.58094,2.58094,0,0,1-2.581-2.581v-7.624" fill="none" stroke="#000" stroke-miterlimit="10" stroke-width="3.6"/><path d="M25.3385,82.771v9.198a2.58093,2.58093,0,0,0,2.581,2.581h9.452a2.58093,2.58093,0,0,0,2.581-2.581V84.345" fill="none" stroke="#000" stroke-miterlimit="10" stroke-width="3.6"/></svg>