<svg id="Layer_1" data-name="Layer 1" xmlns="http://www.w3.org/2000/svg" viewBox="0 0 120 120"><title>Forsvaret ikoner</title><polyline points="91.408 44.148 91.408 19.198 28.152 19.198 28.152 44.148" fill="none" stroke="#000" stroke-miterlimit="10" stroke-width="3.6"/><path d="M88.0415,81.3733v-17.89a5.35861,5.35861,0,0,0-5.359-5.359H36.8765a5.35925,5.35925,0,0,0-5.359,5.359v17.89" fill="none" stroke="#000" stroke-linecap="round" stroke-miterlimit="10" stroke-width="3.6"/><path d="M83.7361,58.1239l-1.002-14.841a5.5338,5.5338,0,0,0-5.521-5.161H42.7421a5.53381,5.53381,0,0,0-5.521,5.161l-1.398,14.592" fill="none" stroke="#000" stroke-linecap="round" stroke-miterlimit="10" stroke-width="3.6"/><path d="M87.7139,63.4075h7.104l1.02-6.539a4.59425,4.59425,0,0,0-4.54-5.303h-3.584" fill="none" stroke="#000" stroke-miterlimit="10" stroke-width="3.6"/><path d="M31.9139,63.4075h-7.104l-1.02-6.539a4.59427,4.59427,0,0,1,4.54-5.303h3.584" fill="none" stroke="#000" stroke-miterlimit="10" stroke-width="3.6"/><path d="M51.0894,81.317V70.861a2.379,2.379,0,0,1,2.25-2.49h12.88a2.37982,2.37982,0,0,1,2.251,2.49V81.317" fill="none" stroke="#000" stroke-miterlimit="10" stroke-width="3.6"/><line x1="51.4506" y1="75.0404" x2="68.1086" y2="75.0404" fill="none" stroke="#000" stroke-linecap="round" stroke-miterlimit="10" stroke-width="3.6"/><polyline points="38.425 82.186 25.703 82.186 25.703 90.538 93.856 90.538 93.856 82.186 38.425 82.186" fill="none" stroke="#000" stroke-miterlimit="10" stroke-width="3.6"/><path d="M87.5211,90.0948v7.692a2.15949,2.15949,0,0,1-2.159,2.159h-7.904a2.15864,2.15864,0,0,1-2.158-2.159v-6.676" fill="none" stroke="#000" stroke-miterlimit="10" stroke-width="3.6"/><path d="M32.0382,90.0948v7.692a2.15949,2.15949,0,0,0,2.159,2.159h7.904a2.15864,2.15864,0,0,0,2.158-2.159v-6.676" fill="none" stroke="#000" stroke-miterlimit="10" stroke-width="3.6"/></svg>