<svg id="Layer_1" data-name="Layer 1" xmlns="http://www.w3.org/2000/svg" viewBox="0 0 120 120"><title>Forsvaret ikoner</title><circle cx="83.591" cy="59.9543" r="19.101" fill="none" stroke="#000" stroke-miterlimit="10" stroke-width="3.6"/><path d="M42.3256,77.8701a19.10854,19.10854,0,1,1,8.831-6.708" fill="none" stroke="#000" stroke-miterlimit="10" stroke-width="3.6"/><path d="M22.9942,59.9543a12.69319,12.69319,0,0,1,12.693-12.693" fill="none" stroke="#000" stroke-miterlimit="10" stroke-width="3.6"/><path d="M70.4884,59.9543a12.69319,12.69319,0,0,1,12.693-12.693" fill="none" stroke="#000" stroke-miterlimit="10" stroke-width="3.6"/><line x1="55.6024" y1="62.0938" x2="63.5554" y2="62.0938" fill="none" stroke="#000" stroke-miterlimit="10" stroke-width="3.6"/><path d="M48.5594,45.8423h5.341a6.052,6.052,0,0,1,12.104,0h4.714" fill="none" stroke="#000" stroke-miterlimit="10" stroke-width="3.6"/><path d="M57.771,46.2101a2.077,2.077,0,1,0,2.077-2.077,2.07712,2.07712,0,0,0-2.077,2.077"/></svg>