<svg id="Layer_1" data-name="Layer 1" xmlns="http://www.w3.org/2000/svg" viewBox="0 0 120 120"><title>Forsvaret ikoner</title><path d="M41.0385,80.6971a9.46284,9.46284,0,0,1,1,5.8l-.8,5,3.5,7.3,60.5-32.7-12.9-11.3a3.33765,3.33765,0,0,1-1.2-2.5l-1.4-18-60.4,32.7,6.4,13" fill="none" stroke="#000" stroke-miterlimit="10" stroke-width="3.6"/><line x1="58.8385" y1="68.2971" x2="67.23849" y2="86.0971" fill="none" stroke="#000" stroke-miterlimit="10" stroke-width="3.6"/><line x1="42.5385" y1="59.6971" x2="50.9385" y2="77.4971" fill="none" stroke="#000" stroke-miterlimit="10" stroke-width="3.6"/><line x1="29.3385" y1="56.5971" x2="35.8385" y2="63.6971" fill="none" stroke="#000" stroke-miterlimit="10" stroke-width="3.6"/><path d="M73.1385,41.397a3.74831,3.74831,0,0,1-1.8-2.1l-5.3-17.2-51.6,46.4,9,11.1" fill="none" stroke="#000" stroke-miterlimit="10" stroke-width="3.6"/><path d="M28.8385,78.9971a8.49291,8.49291,0,0,1,2.2,5.4l.4,5.1,5,6.2,2.7-2.4" fill="none" stroke="#000" stroke-miterlimit="10" stroke-width="3.6"/></svg>