<svg id="Layer_1" data-name="Layer 1" xmlns="http://www.w3.org/2000/svg" viewBox="0 0 120 120"><title>Forsvaret ikoner</title><line x1="59.3557" y1="27.8275" x2="59.3557" y2="33.55251" fill="none" stroke="#000" stroke-miterlimit="10" stroke-width="3.6"/><line x1="59.3557" y1="83.9142" x2="59.3557" y2="89.6392" fill="none" stroke="#000" stroke-miterlimit="10" stroke-width="3.6"/><line x1="28.4497" y1="58.7336" x2="34.1747" y2="58.7336" fill="none" stroke="#000" stroke-miterlimit="10" stroke-width="3.6"/><line x1="84.5363" y1="58.7336" x2="90.2613" y2="58.7336" fill="none" stroke="#000" stroke-miterlimit="10" stroke-width="3.6"/><polygon points="75.364 42.782 64.993 64.329 43.447 74.699 53.817 53.152 75.364 42.782" fill="none" stroke="#000" stroke-linecap="round" stroke-miterlimit="10" stroke-width="3.6"/><path d="M41.2056,25.2517q1.6185-.879,3.329-1.603,1.707-.723,3.498-1.281a37.91059,37.91059,0,0,1,7.43-1.515,38.56411,38.56411,0,0,1,7.786,0,37.911,37.911,0,0,1,7.43,1.515q1.7895.5565,3.499,1.281,1.7085.72151,3.328,1.603,1.6185.879,3.14,1.907,1.5195,1.02748,2.931,2.192,1.41,1.164,2.704,2.458,1.2915,1.2915,2.458,2.704,1.164,1.41,2.192,2.931,1.026,1.5195,1.907,3.14.879,1.6185,1.603,3.328.723,1.70848,1.281,3.499a37.91254,37.91254,0,0,1,1.515,7.43,38.564,38.564,0,0,1,0,7.786,37.91254,37.91254,0,0,1-1.515,7.43q-.5565,1.788-1.281,3.498-.7215,1.7085-1.603,3.329-.879,1.6185-1.907,3.14-1.0275,1.518-2.192,2.931-1.164,1.41-2.458,2.704-1.2915,1.2915-2.704,2.458-1.41,1.164-2.931,2.192-1.5195,1.026-3.14,1.907-1.6185.879-3.328,1.603-1.7085.723-3.499,1.281-1.788.5565-3.649.938a37.89268,37.89268,0,0,1-3.781.577,38.56411,38.56411,0,0,1-7.786,0,37.89287,37.89287,0,0,1-3.781-.577q-1.8585-.381-3.649-.938-1.788-.5565-3.498-1.281-1.7085-.7215-3.329-1.603-1.6185-.879-3.14-1.907-1.518-1.0275-2.931-2.192-1.41-1.164-2.704-2.458-1.2915-1.2915-2.458-2.704-1.164-1.41-2.192-2.931-1.026-1.5195-1.907-3.14-.879-1.6185-1.603-3.329-.723-1.707-1.281-3.498-.5565-1.788-.938-3.649a37.89287,37.89287,0,0,1-.577-3.781,38.564,38.564,0,0,1,0-7.786,37.89287,37.89287,0,0,1,.577-3.781q.381-1.85852.938-3.649.5565-1.78952,1.281-3.499.7215-1.7085,1.603-3.328.879-1.61848,1.907-3.14,1.0275-1.5195,2.192-2.931,1.164-1.41,2.458-2.704" fill="none" stroke="#000" stroke-miterlimit="10" stroke-width="3.6"/><path d="M62.1829,58.7336a2.827,2.827,0,1,1-2.827-2.827,2.8274,2.8274,0,0,1,2.827,2.827"/></svg>