<svg id="Layer_1" data-name="Layer 1" xmlns="http://www.w3.org/2000/svg" viewBox="0 0 120 120"><title>Forsvaret ikoner</title><line x1="18.4297" y1="58.5945" x2="29.4297" y2="58.5945" fill="none" stroke="#000" stroke-miterlimit="10" stroke-width="3.6"/><line x1="43.8297" y1="52.3945" x2="43.8297" y2="68.9945" fill="none" stroke="#000" stroke-miterlimit="10" stroke-width="3.6"/><path d="M29.4297,66.6945c0-6.8,6.6-8,6.6-8l43.1-.1s16.2-.1,25.2-14.9v30.2s-5-11.3-19.3-11.3" fill="none" stroke="#000" stroke-miterlimit="10" stroke-width="3.6"/><path d="M29.4297,66.6945c0,6.8,6.6,8,6.6,8l36.7.1h3.6s4.7-.6,4.7-6.6v-4.3" fill="none" stroke="#000" stroke-miterlimit="10" stroke-width="3.6"/><line x1="51.6297" y1="52.3945" x2="51.6297" y2="68.9945" fill="none" stroke="#000" stroke-miterlimit="10" stroke-width="3.6"/><line x1="59.8297" y1="52.3945" x2="59.8297" y2="68.9945" fill="none" stroke="#000" stroke-miterlimit="10" stroke-width="3.6"/><line x1="56.9297" y1="52.3945" x2="62.8297" y2="52.3945" fill="none" stroke="#000" stroke-miterlimit="10" stroke-width="3.6"/><line x1="48.6297" y1="52.3945" x2="54.5297" y2="52.3945" fill="none" stroke="#000" stroke-miterlimit="10" stroke-width="3.6"/><line x1="40.8297" y1="52.3945" x2="46.8297" y2="52.3945" fill="none" stroke="#000" stroke-miterlimit="10" stroke-width="3.6"/><line x1="18.4297" y1="55.2944" x2="18.4297" y2="61.89441" fill="none" stroke="#000" stroke-miterlimit="10" stroke-width="3.6"/><line x1="43.8297" y1="75.1945" x2="43.8297" y2="80.1945" fill="none" stroke="#000" stroke-miterlimit="10" stroke-width="3.6"/><line x1="51.6297" y1="75.1945" x2="51.6297" y2="80.1945" fill="none" stroke="#000" stroke-miterlimit="10" stroke-width="3.6"/><line x1="59.8297" y1="75.1945" x2="59.8297" y2="80.1945" fill="none" stroke="#000" stroke-miterlimit="10" stroke-width="3.6"/></svg>