<svg id="Layer_1" data-name="Layer 1" xmlns="http://www.w3.org/2000/svg" viewBox="0 0 120 120"><title>Forsvaret ikoner</title><circle cx="29.89382" cy="91.06852" r="3.63098" fill="none" stroke="#000" stroke-miterlimit="10" stroke-width="2.75884"/><circle cx="41.41553" cy="91.06852" r="3.63098" fill="none" stroke="#000" stroke-miterlimit="10" stroke-width="2.75884"/><circle cx="78.72374" cy="91.06852" r="3.63098" fill="none" stroke="#000" stroke-miterlimit="10" stroke-width="2.75884"/><circle cx="90.24545" cy="91.06852" r="3.63098" fill="none" stroke="#000" stroke-miterlimit="10" stroke-width="2.75884"/><rect x="17.69841" y="73.83658" width="84.74245" height="8.09418" fill="none" stroke="#000" stroke-miterlimit="10" stroke-width="3.6"/><line x1="11.73125" y1="77.88367" x2="16.86415" y2="77.88367" fill="none" stroke="#000" stroke-miterlimit="10" stroke-width="3.6"/><line x1="10.74416" y1="73.41532" x2="10.74416" y2="82.35202" fill="none" stroke="#000" stroke-miterlimit="10" stroke-width="3.6"/><line x1="109.06829" y1="77.88367" x2="103.9354" y2="77.88367" fill="none" stroke="#000" stroke-miterlimit="10" stroke-width="3.6"/><line x1="110.05539" y1="82.35202" x2="110.05539" y2="73.41532" fill="none" stroke="#000" stroke-miterlimit="10" stroke-width="3.6"/><polyline points="97.305 68.347 97.305 34.935 23.091 34.935 23.091 68.347" fill="none" stroke="#000" stroke-miterlimit="10" stroke-width="3.6"/><line x1="90.24517" y1="68.34749" x2="90.24517" y2="40.60444" fill="none" stroke="#000" stroke-miterlimit="10" stroke-width="3.6"/><line x1="82.73335" y1="68.34749" x2="82.73335" y2="40.60444" fill="none" stroke="#000" stroke-miterlimit="10" stroke-width="3.6"/><line x1="75.22154" y1="68.34749" x2="75.22154" y2="40.60444" fill="none" stroke="#000" stroke-miterlimit="10" stroke-width="3.6"/><line x1="67.70973" y1="68.34749" x2="67.70973" y2="40.60444" fill="none" stroke="#000" stroke-miterlimit="10" stroke-width="3.6"/><line x1="60.19792" y1="68.34749" x2="60.19792" y2="40.60444" fill="none" stroke="#000" stroke-miterlimit="10" stroke-width="3.6"/><line x1="52.68611" y1="68.34749" x2="52.68611" y2="40.60444" fill="none" stroke="#000" stroke-miterlimit="10" stroke-width="3.6"/><line x1="45.1743" y1="68.34749" x2="45.1743" y2="40.60444" fill="none" stroke="#000" stroke-miterlimit="10" stroke-width="3.6"/><line x1="37.66249" y1="68.34749" x2="37.66249" y2="40.60444" fill="none" stroke="#000" stroke-miterlimit="10" stroke-width="3.6"/><line x1="30.15068" y1="68.34749" x2="30.15068" y2="40.60444" fill="none" stroke="#000" stroke-miterlimit="10" stroke-width="3.6"/></svg>