<svg id="Layer_1" data-name="Layer 1" xmlns="http://www.w3.org/2000/svg" viewBox="0 0 120 120"><title>Forsvaret ikoner</title><path d="M77.22006,56.74894a12.1902,12.1902,0,1,1-1.573,23.10814" fill="none" stroke="#000" stroke-miterlimit="10" stroke-width="3.6"/><path d="M86.54889,58.28326A9.4607,9.4607,0,0,0,73.10713,45.14167a12.01776,12.01776,0,0,0-16.81831,4.23021" fill="none" stroke="#000" stroke-miterlimit="10" stroke-width="3.6"/><path d="M72.3858,51.06444a7.46329,7.46329,0,0,1,.7191,13.74493" fill="none" stroke="#000" stroke-miterlimit="10" stroke-width="3.6"/><line x1="58.80566" y1="45.99551" x2="44.52708" y2="31.71693" fill="none" stroke="#000" stroke-miterlimit="10" stroke-width="3.6"/><line x1="37.0662" y1="24.25605" x2="30.89168" y2="18.08153" fill="none" stroke="#000" stroke-miterlimit="10" stroke-width="3.6"/><line x1="59.96804" y1="35.31873" x2="46.46127" y2="21.81197" fill="none" stroke="#000" stroke-miterlimit="10" stroke-width="3.6"/><line x1="97.58447" y1="101.82346" x2="23.10432" y2="27.34331" fill="none" stroke="#000" stroke-miterlimit="10" stroke-width="3.6"/><polyline points="38.046 74.043 33.123 57.41 28.199 74.043 32.941 74.043 32.941 77.807" fill="none" stroke="#000" stroke-miterlimit="10" stroke-width="3.6"/><polyline points="54.822 90.976 49.898 74.342 44.974 90.976 49.716 90.976 49.716 94.74" fill="none" stroke="#000" stroke-miterlimit="10" stroke-width="3.6"/></svg>