<svg id="Layer_1" data-name="Layer 1" xmlns="http://www.w3.org/2000/svg" viewBox="0 0 120 120"><title>Forsvaret ikoner</title><path d="M45.5125,67.2528v15.803a2.76509,2.76509,0,0,0,2.769,2.761h23.027a2.76446,2.76446,0,0,0,2.769-2.761V68.1738H54.6615" fill="none" stroke="#000" stroke-miterlimit="10" stroke-width="3.6"/><polyline points="83.039 49.675 83.039 95.069 36.551 95.069 36.551 49.675" fill="none" stroke="#000" stroke-miterlimit="10" stroke-width="3.6"/><polyline points="83.117 60.356 93.693 60.356 93.693 95.07 83.117 95.07" fill="none" stroke="#000" stroke-miterlimit="10" stroke-width="3.6"/><polyline points="36.516 95.069 25.94 95.069 25.94 60.355 36.516 60.355" fill="none" stroke="#000" stroke-miterlimit="10" stroke-width="3.6"/><polyline points="41.44 28.212 41.44 19.048 49.305 19.048 49.305 28.195" fill="none" stroke="#000" stroke-miterlimit="10" stroke-width="3.6"/><polyline points="79.233 28.212 79.233 19.048 71.368 19.048 71.368 28.195" fill="none" stroke="#000" stroke-miterlimit="10" stroke-width="3.6"/><rect x="32.053" y="28.931" width="55.485" height="20.251" fill="none" stroke="#000" stroke-miterlimit="10" stroke-width="3.6"/><line x1="47.8453" y1="41.3043" x2="47.8453" y2="57.2633" fill="none" stroke="#000" stroke-miterlimit="10" stroke-width="3.6"/><line x1="71.7449" y1="41.3043" x2="71.7449" y2="57.2633" fill="none" stroke="#000" stroke-miterlimit="10" stroke-width="3.6"/></svg>