<svg id="Layer_1" data-name="Layer 1" xmlns="http://www.w3.org/2000/svg" viewBox="0 0 120 120"><title>Forsvaret ikoner</title><polyline points="81.053 72.752 81.053 33.67 6.839 33.67 6.839 73.318 22.198 73.318" fill="none" stroke="#000" stroke-miterlimit="10" stroke-width="3.6"/><line x1="73.99291" y1="67.64915" x2="73.99291" y2="39.33917" fill="none" stroke="#000" stroke-miterlimit="10" stroke-width="3.6"/><line x1="66.4811" y1="67.64915" x2="66.4811" y2="39.33917" fill="none" stroke="#000" stroke-miterlimit="10" stroke-width="3.6"/><line x1="58.96929" y1="67.64915" x2="58.96929" y2="39.33917" fill="none" stroke="#000" stroke-miterlimit="10" stroke-width="3.6"/><line x1="51.45748" y1="67.64915" x2="51.45748" y2="39.33917" fill="none" stroke="#000" stroke-miterlimit="10" stroke-width="3.6"/><line x1="43.94567" y1="67.64915" x2="43.94567" y2="39.33917" fill="none" stroke="#000" stroke-miterlimit="10" stroke-width="3.6"/><line x1="36.43386" y1="67.64915" x2="36.43386" y2="39.33917" fill="none" stroke="#000" stroke-miterlimit="10" stroke-width="3.6"/><line x1="28.92204" y1="67.64915" x2="28.92204" y2="39.33917" fill="none" stroke="#000" stroke-miterlimit="10" stroke-width="3.6"/><line x1="21.41023" y1="67.64915" x2="21.41023" y2="39.33917" fill="none" stroke="#000" stroke-miterlimit="10" stroke-width="3.6"/><line x1="13.89842" y1="67.64915" x2="13.89842" y2="39.33917" fill="none" stroke="#000" stroke-miterlimit="10" stroke-width="3.6"/><circle cx="93.58281" cy="90.46934" r="8.328" fill="none" stroke="#000" stroke-miterlimit="10" stroke-width="3.6"/><circle cx="57.72371" cy="90.46934" r="8.328" fill="none" stroke="#000" stroke-miterlimit="10" stroke-width="3.6"/><circle cx="35.96182" cy="90.46934" r="8.328" fill="none" stroke="#000" stroke-miterlimit="10" stroke-width="3.6"/><polyline points="75.73 78.961 68.422 78.961 64.918 73.729 28.767 73.729 23.439 80.095 17.435 80.095" fill="none" stroke="#000" stroke-miterlimit="10" stroke-width="3.6"/><polyline points="88.749 60.927 88.749 51.919 108.702 51.919 113.631 61.097 113.631 82.682 106.832 82.682 102.75 76.055" fill="none" stroke="#000" stroke-miterlimit="10" stroke-width="3.6"/><polyline points="75.73 78.961 83.038 78.961 85.255 75.543 113.631 75.543" fill="none" stroke="#000" stroke-miterlimit="10" stroke-width="3.6"/><line x1="88.74872" y1="51.91894" x2="88.74872" y2="75.54294" fill="none" stroke="#000" stroke-miterlimit="10" stroke-width="3.6"/><line x1="44.28982" y1="90.46934" x2="49.39582" y2="90.46934" fill="none" stroke="#000" stroke-miterlimit="10" stroke-width="3.6"/><polyline points="101.911 51.919 101.911 64.472 113.631 64.472" fill="none" stroke="#000" stroke-miterlimit="10" stroke-width="3.6"/><path d="M38.44122,90.40084a2.3025,2.3025,0,1,1-2.303-2.303,2.30289,2.30289,0,0,1,2.303,2.303"/><path d="M60.02652,90.40084a2.30251,2.30251,0,1,1-2.303-2.303,2.30289,2.30289,0,0,1,2.303,2.303"/><path d="M95.88562,90.40084a2.30251,2.30251,0,1,1-2.303-2.303,2.30289,2.30289,0,0,1,2.303,2.303"/></svg>